<?xml version="1.0" encoding="UTF-8"?>
<svg id="Layer_1" data-name="Layer 1" xmlns="http://www.w3.org/2000/svg" version="1.1" viewBox="0 0 265.8 60.1">
  <defs>
    <style>
      .cls-1 {
        fill: #fff;
        stroke-width: 0px;
      }
    </style>
  </defs>
  <path class="cls-1" d="M265.6,40.9c0-.2,0-.5-.1-.7,0-.5-.2-1-.3-1.5,0-.3-.2-.5-.2-.8-.1-.4-.3-.9-.4-1.3-.1-.3-.2-.5-.3-.8-.2-.4-.4-.8-.6-1.2-.1-.2-.3-.5-.4-.7-.2-.4-.5-.8-.8-1.2-.1-.2-.3-.4-.4-.6-.4-.5-.9-1.1-1.3-1.5,0,0,0,0,0,0-.5-.5-1-1-1.6-1.5-.2-.1-.4-.3-.5-.4-.4-.3-.8-.6-1.2-.9-.2-.1-.5-.3-.7-.4-.4-.2-.8-.4-1.2-.6-.3-.2-.7-.3-1-.4-.4-.2-.8-.3-1.2-.4-.2,0-.4-.1-.6-.2-.5-.1-1-.2-1.4-.3-.2,0-.5-.1-.7-.1-.7-.1-1.4-.2-2-.2,0,0-.1,0-.2,0-.8,0-1.6,0-2.3,0-.2,0-.5,0-.7.1-.4,0-.9,0-1.3.2,0,0-.2,0-.3,0-1,.2-2.1.5-3.1.9V2.3c0-.9-.7-1.6-1.6-1.6h-8.1c-.9,0-1.6.7-1.6,1.6v56.2c0,.9.7,1.6,1.6,1.6h8.1c.9,0,1.6-.7,1.6-1.6v-15.3c0-.5,0-.9.1-1.3,0-.1,0-.2,0-.3.1-.4.2-.8.4-1.2,0,0,0,0,0,0,.2-.4.4-.8.6-1.1,0,0,.1-.2.2-.3.2-.3.5-.6.8-.9,0,0,0,0,0,0,.3-.3.7-.5,1-.8,0,0,.2-.1.3-.2.4-.2.7-.4,1.1-.5,0,0,0,0,0,0,.4-.1.8-.2,1.3-.3.1,0,.2,0,.3,0,.4,0,.8,0,1.3,0,0,0,0,0,.1,0,3.7.3,6.5,3.8,6.5,7.6v14.9c0,.9.7,1.6,1.6,1.6h8.1c.9,0,1.6-.7,1.6-1.6v-15.3c0-.8,0-1.5-.2-2.3Z"/>
  <path class="cls-1" d="M31,24.9s0,0,0,0h-13.3c-3.8,0-6.9-3.4-6.3-7.3.5-3.2,3.3-5.4,6.5-5.4h23c.9,0,1.6-.7,1.6-1.6V2.4c0-.9-.7-1.6-1.6-1.6h-23.2C6.7.8-1.9,10.8.4,22.1c1.7,8.3,9.2,14,17.6,14h12.5c3.8,0,6.9,3.4,6.3,7.3-.5,3.2-3.3,5.4-6.5,5.4H1.6c-.9,0-1.6.7-1.6,1.6v8.1c0,.9.7,1.6,1.6,1.6h28.6c8.4,0,15.8-5.7,17.5-13.9,2.3-11.2-6-21.1-16.7-21.4Z"/>
  <path class="cls-1" d="M120,16.8h-8.1c-.9,0-1.6.7-1.6,1.6v23.3c0,4.1-3.4,7.4-7.6,7.1-3.8-.2-6.7-3.6-6.7-7.4v-23.1c0-.9-.7-1.6-1.6-1.6h-8.1c-.9,0-1.6.7-1.6,1.6v23.3c0,4.1-3.4,7.4-7.6,7.1-3.8-.2-6.7-3.6-6.7-7.4v-23.1c0-.9-.7-1.6-1.6-1.6h-8.1c-.9,0-1.6.7-1.6,1.6v23.1c0,8.6,5.8,16.3,14.2,18.2,6.6,1.5,12.8-.7,17-4.8,2.4,2.4,5.4,4.2,8.9,4.9,11.8,2.4,22.2-6.7,22.2-18v-23.3c0-.9-.7-1.6-1.6-1.6Z"/>
  <rect class="cls-1" x="132.7" y=".8" width="11.3" height="9.8" rx="1.6" ry="1.6"/>
  <path class="cls-1" d="M176.2,12.8h-9.8V2.3c0-.9-.7-1.6-1.6-1.6h-8.1c-.9,0-1.6.7-1.6,1.6v39.4c0,9.6,7.4,17.5,16.7,18.3.9,0,1.7-.7,1.7-1.6v-8.2c0-.7-.5-1.4-1.3-1.5-3.3-.6-5.9-3.5-5.9-7v-17.7h9.8c.9,0,1.6-.7,1.6-1.6v-8.1c0-.9-.7-1.6-1.6-1.6Z"/>
  <path class="cls-1" d="M207.1,60.1h9.1c.9,0,1.6-.7,1.6-1.6v-8.1c0-.9-.7-1.6-1.6-1.6h-8c-8.1,0-14.4-7.9-11.8-16.3,1.6-5.1,6.5-8.4,11.8-8.4h8c.9,0,1.6-.7,1.6-1.6v-8.1c0-.9-.7-1.6-1.6-1.6h-8c-16.8,0-29.5,17.5-20.9,35.3,3.7,7.5,11.4,12.1,19.7,12.1Z"/>
  <rect class="cls-1" x="132.7" y="16.8" width="11.3" height="43.3" rx="1.6" ry="1.6"/>
</svg>