<?xml version="1.0" encoding="UTF-8"?><svg id="Layer_1" xmlns="http://www.w3.org/2000/svg" viewBox="0 0 296.63 193.8"><defs><style>.cls-1{fill:#fff;stroke-width:0px;}</style></defs><path class="cls-1" d="M258.29,90.31l-13.87-1.63c0-2.8-.01-5.51-.05-7.26-.32-16.04,10.86-25.09,21.9-28.41h5.91v26.43l-13.9,10.88ZM296.63,28.59h-33.57s-43.11,8.02-43.1,53.32c0,0-.01,25.78,0,26.43l44.21,7.25,8.01-7v42.09h24.44V28.59Z"/><path class="cls-1" d="M183.8,97.37c-6.18-1.79-13.9-4.45-21.77-7.95.01-.02.02-.03.03-.05,5.87-8.52,8.71-18.18,9.9-27.2,7.96,10.18,13.12,22.03,11.84,35.2M140.6,77.31c-5.5-4.03-10.27-8.59-13.63-13.66,1.1-2.92,6.16-16.82,21.11-18.75,1.44,18.17-3.85,28.13-7.48,32.41M126.13,0l-9.25,22.6c.17.07,3.91,1.64,9.55,4.54-21.88,13.11-25.43,39.68-25.43,39.68,2.61,5.58,6.28,12.95,14.58,21.21h-24.08l-13.42-32.87s-10.32-26.56-40.11-26.56H0v24.42h37.97c15.08,0,19.3,15.77,19.3,15.77h-7.99C22.31,68.78.26,90.73.14,117.71l-.14,32.97h24.42l.14-32.86c.06-13.58,11.15-24.62,24.73-24.62h17.87l7.78,19.25h45.36s13.08-1.35,21.32-5.8c25.23,13.44,52.39,18.23,52.39,18.23l12.74-16.51c7.26-28.09-4.06-73.86-80.63-108.36"/><path class="cls-1" d="M65.66,126.22c0-7.61-6.17-13.78-13.78-13.78s-13.78,6.17-13.78,13.78,6.17,13.78,13.78,13.78,13.78-6.17,13.78-13.78"/><rect class="cls-1" x="0" y="5.97" width="45.78" height="8.52"/><rect class="cls-1" x="250.85" y="5.97" width="45.78" height="8.52"/></svg>