<?xml version="1.0" encoding="UTF-8"?>
<svg id="Layer_1" data-name="Layer 1" xmlns="http://www.w3.org/2000/svg" version="1.1" viewBox="0 0 291.6 31">
  <defs>
    <style>
      .cls-1 {
        fill: #828282;
      }

      .cls-1, .cls-2, .cls-3, .cls-4 {
        stroke-width: 0px;
      }

      .cls-2 {
        fill: #000;
      }

      .cls-3 {
        fill: #f2f2f2;
      }

      .cls-4 {
        fill: #fff;
      }
    </style>
  </defs>
  <g>
    <rect class="cls-2" x="-6945.8" y="2537.2" width="2408.7" height="1162.2"/>
    <g>
      <polygon class="cls-4" points="-5911.6 3209.4 -5870.7 3248.9 -5672.8 3044.5 -5628.2 3044.5 -5628.2 3229.1 -5571.4 3229.1 -5571.4 2987.6 -5696.9 2987.6 -5911.6 3209.4"/>
      <path class="cls-4" d="M-5862,3044.5v-26.9h-10.5v-5.4h26.5v5.4h-10.3v26.9h-5.7ZM-5841.8,3044.5v-32.3h10.7l6.6,26.9h1.1l6.4-26.9h10.7v32.3h-5.6v-26.9h-1.3l-6.6,26.9h-8.8l-6.4-26.9h-1.3v26.9h-5.7Z"/>
    </g>
  </g>
  <rect class="cls-3" x="-4537.1" y="2537.2" width="2408.7" height="1162.2"/>
  <g>
    <polygon class="cls-2" points="-3502.9 3209.4 -3462 3248.9 -3264.2 3044.5 -3219.6 3044.5 -3219.6 3229.1 -3162.7 3229.1 -3162.7 2987.6 -3288.3 2987.6 -3502.9 3209.4"/>
    <path class="cls-2" d="M-3453.3,3044.5v-26.9h-10.5v-5.4h26.5v5.4h-10.3v26.9h-5.7ZM-3433.1,3044.5v-32.3h10.7l6.6,26.9h1.1l6.4-26.9h10.7v32.3h-5.6v-26.9h-1.3l-6.6,26.9h-8.8l-6.4-26.9h-1.3v26.9h-5.7Z"/>
  </g>
  <rect class="cls-4" x="-6945.8" y="3699.3" width="2408.7" height="1162.2"/>
  <g>
    <polygon class="cls-2" points="-5911.6 4371.5 -5870.7 4411.1 -5672.8 4206.6 -5628.2 4206.6 -5628.2 4391.3 -5571.4 4391.3 -5571.4 4149.8 -5696.9 4149.8 -5911.6 4371.5"/>
    <path class="cls-2" d="M-5862,4206.6v-26.9h-10.5v-5.4h26.5v5.4h-10.3v26.9h-5.7ZM-5841.8,4206.6v-32.3h10.7l6.6,26.9h1.1l6.4-26.9h10.7v32.3h-5.6v-26.9h-1.3l-6.6,26.9h-8.8l-6.4-26.9h-1.3v26.9h-5.7Z"/>
  </g>
  <rect class="cls-1" x="-4537.1" y="3699.3" width="2408.7" height="1162.2"/>
  <g>
    <polygon class="cls-4" points="-3502.9 4371.5 -3462 4411.1 -3264.2 4206.6 -3219.6 4206.6 -3219.6 4391.3 -3162.7 4391.3 -3162.7 4149.8 -3288.3 4149.8 -3502.9 4371.5"/>
    <path class="cls-4" d="M-3453.3,4206.6v-26.9h-10.5v-5.4h26.5v5.4h-10.3v26.9h-5.7ZM-3433.1,4206.6v-32.3h10.7l6.6,26.9h1.1l6.4-26.9h10.7v32.3h-5.6v-26.9h-1.3l-6.6,26.9h-8.8l-6.4-26.9h-1.3v26.9h-5.7Z"/>
  </g>
  <rect class="cls-1" x="-6945.8" y="112.8" width="4817.3" height="1162.2"/>
  <rect class="cls-2" x="-6945.8" y="-2311.5" width="4817.3" height="2324.3"/>
  <g>
    <polygon class="cls-4" points="-5089.1 734.9 -5070.8 752.6 -4982 660.9 -4962 660.9 -4962 743.7 -4936.5 743.7 -4936.5 635.4 -4992.9 635.4 -5089.1 734.9"/>
    <polygon class="cls-4" points="-4354.3 635.4 -4319.8 671 -4285.3 635.4 -4237.4 635.4 -4237.4 743.7 -4263 743.7 -4263 660.9 -4274.5 660.9 -4302 689.4 -4284.6 707.4 -4302.9 725.2 -4365.1 660.9 -4376.6 660.9 -4376.6 743.7 -4402.1 743.7 -4402.1 635.4 -4354.3 635.4"/>
    <path class="cls-4" d="M-4453.1,707.3c0,5.9-4.8,10.7-10.7,10.7h-32.5c-5.9,0-10.7-4.8-10.7-10.7v-72.1h-25.5v72.1c0,20,16.3,36.2,36.2,36.2h32.5c20,0,36.2-16.3,36.2-36.2v-72.1h-25.5v72.1Z"/>
    <path class="cls-4" d="M-4844.8,677h-33.1c-4.4,0-8-3.6-8-8s3.6-8,8-8h66.2v-25.5h-66.2c-18.5,0-33.5,15-33.5,33.5s15,33.5,33.5,33.5h33.1c4.4,0,8,3.6,8,8s-3.6,8-8,8h-66.2v25.5h66.2c18.5,0,33.5-15,33.5-33.5s-15.1-33.5-33.5-33.5Z"/>
    <path class="cls-4" d="M-4660.9,660.8v-25.4h66.6c18.5,0,33.5,15.1,33.5,33.6s-10.2,28.1-24.1,32.2l32.7,33.8-18.3,17.7-48.5-50.1h-16.4v41.3h-25.5v-66.8h66.6c4.4,0,8-3.6,8-8s-3.6-8-8-8h-66.6Z"/>
    <polygon class="cls-4" points="-4725.2 660.9 -4725.2 743.7 -4750.8 743.7 -4750.8 660.9 -4786 660.9 -4786 635.4 -4686.4 635.4 -4686.4 660.8 -4725.2 660.9"/>
    <path class="cls-4" d="M-5084.4,649.7v-12.1h-4.7v-2.4h11.9v2.4h-4.6v12.1h-2.6ZM-5075.4,649.7v-14.5h4.8l2.9,12.1h.5l2.9-12.1h4.8v14.5h-2.5v-12.1h-.6l-2.9,12.1h-3.9l-2.9-12.1h-.6v12.1h-2.6Z"/>
    <path class="cls-4" d="M-4202.5,683.8v-48.5h14.1l10.6,43.5h1.1l10.6-43.5h14.1v48.5h-7.3v-43.3h-1.1l-10.5,43.3h-12.6l-10.5-43.3h-1.1v43.3h-7.3Z"/>
    <path class="cls-4" d="M-4141.9,683.8v-48.5h30.6v6.8h-23.1v13.9h21.2v6.8h-21.2v14.2h23.4v6.8h-30.9Z"/>
    <path class="cls-4" d="M-4105,683.8v-6.7h6.5v-35.2h-6.5v-6.7h19.4c6.5,0,11.4,1.6,14.9,4.9,3.4,3.3,5.2,8.2,5.2,14.8v9.1c0,6.6-1.7,11.5-5.2,14.8-3.4,3.3-8.4,4.9-14.9,4.9h-19.4ZM-4090.9,677h5.4c4.2,0,7.3-1.1,9.4-3.2,2-2.1,3.1-5.3,3.1-9.5v-9.6c0-4.3-1-7.4-3.1-9.5-2-2.1-5.2-3.1-9.4-3.1h-5.4v34.9Z"/>
    <path class="cls-4" d="M-4057,683.8v-48.5h7.5v48.5h-7.5Z"/>
    <path class="cls-4" d="M-4043,683.8l13.9-48.5h13.2l13.8,48.5h-7.7l-3.2-11.4h-19l-3.2,11.4h-7.8ZM-4030.2,665.4h15.3l-7.1-25.5h-1.1l-7.1,25.5Z"/>
    <path class="cls-4" d="M-4185.7,744.6c-3.5,0-6.6-.8-9.3-2.3-2.7-1.5-4.9-3.7-6.4-6.6-1.6-2.9-2.4-6.5-2.4-10.7v-11.4c0-6.3,1.7-11.2,5.2-14.5,3.5-3.4,8.2-5,14.1-5s10.3,1.6,13.5,4.7c3.1,3.2,4.7,7.4,4.7,12.7v.3h-7.4v-.6c0-2-.4-3.8-1.2-5.4-.8-1.6-2-2.9-3.5-3.8-1.6-.9-3.6-1.4-6-1.4-3.7,0-6.6,1.1-8.7,3.4-2.1,2.2-3.1,5.4-3.1,9.3v11.7c0,3.9,1,7,3.1,9.3,2.1,2.3,5,3.4,8.7,3.4s6.4-1,8.1-3.1c1.7-2,2.6-4.7,2.6-7.9v-.9h-13v-6.4h20.5v24h-6.9v-4.9h-1.1c-.4.9-1,1.8-1.8,2.7-.8.9-2,1.7-3.5,2.3-1.5.6-3.5.9-6,.9Z"/>
    <path class="cls-4" d="M-4156.7,743.6v-48.5h20.4c3,0,5.7.5,7.9,1.6,2.3,1,4.1,2.5,5.3,4.5,1.3,1.9,1.9,4.3,1.9,6.9v.8c0,3.1-.7,5.5-2.2,7.3-1.5,1.8-3.2,3.1-5.3,3.8v1.1c1.8,0,3.2.7,4.2,1.8,1.1,1.1,1.6,2.6,1.6,4.7v16.1h-7.6v-15c0-1.2-.3-2.2-1-3-.6-.7-1.7-1.1-3.1-1.1h-14.8v19.1h-7.5ZM-4149.2,717.7h12.1c2.7,0,4.8-.7,6.2-2,1.5-1.4,2.2-3.2,2.2-5.6v-.6c0-2.4-.7-4.2-2.2-5.6-1.5-1.4-3.5-2-6.3-2h-12.1v15.8Z"/>
    <path class="cls-4" d="M-4094.6,744.6c-6,0-10.7-1.7-14.2-5-3.5-3.4-5.3-8.2-5.3-14.5v-11.4c0-6.3,1.8-11.2,5.3-14.5,3.5-3.4,8.3-5,14.2-5s10.7,1.7,14.3,5c3.5,3.4,5.3,8.2,5.3,14.5v11.4c0,6.3-1.8,11.2-5.3,14.5-3.5,3.4-8.3,5-14.3,5ZM-4094.6,737.9c3.8,0,6.8-1.1,8.9-3.4,2.1-2.2,3.1-5.3,3.1-9.2v-11.9c0-3.9-1-6.9-3.1-9.2-2.1-2.2-5-3.4-8.9-3.4s-6.7,1.1-8.8,3.4c-2.1,2.2-3.2,5.3-3.2,9.2v11.9c0,3.9,1.1,6.9,3.2,9.2,2.1,2.2,5.1,3.4,8.8,3.4Z"/>
    <path class="cls-4" d="M-4048,744.6c-3.8,0-7.1-.7-9.9-2.1-2.8-1.4-4.9-3.4-6.4-6-1.5-2.6-2.3-5.8-2.3-9.5v-31.9h7.6v32.1c0,3.4.9,6.1,2.8,7.9,1.9,1.8,4.6,2.8,8.1,2.8s6.2-.9,8.1-2.8c1.9-1.8,2.8-4.5,2.8-7.9v-32.1h7.5v31.9c0,3.7-.7,6.9-2.2,9.5-1.5,2.6-3.6,4.6-6.4,6-2.8,1.4-6.1,2.1-9.8,2.1Z"/>
    <path class="cls-4" d="M-4019.8,743.6v-48.5h19.3c3,0,5.6.6,7.9,1.8,2.3,1.2,4.2,2.8,5.5,5,1.3,2.2,2,4.7,2,7.7v.9c0,3-.7,5.6-2,7.8-1.4,2.2-3.2,3.8-5.5,5-2.3,1.2-4.9,1.7-7.8,1.7h-11.8v18.7h-7.5ZM-4012.3,718.2h11c2.6,0,4.7-.7,6.3-2.1,1.6-1.4,2.4-3.3,2.4-5.7v-.7c0-2.4-.8-4.4-2.4-5.8-1.6-1.4-3.7-2.1-6.3-2.1h-11v16.3Z"/>
  </g>
  <rect class="cls-3" x="-6945.8" y="1275" width="4817.3" height="1162.2"/>
  <g>
    <polygon class="cls-2" points="-5089.1 1897 -5070.8 1914.8 -4982 1823.1 -4962 1823.1 -4962 1905.9 -4936.5 1905.9 -4936.5 1797.5 -4992.9 1797.5 -5089.1 1897"/>
    <polygon class="cls-2" points="-4354.3 1797.5 -4319.8 1833.2 -4285.3 1797.6 -4237.4 1797.6 -4237.4 1905.9 -4263 1905.9 -4263 1823.1 -4274.5 1823.1 -4302 1851.6 -4284.6 1869.6 -4302.9 1887.3 -4365.1 1823.1 -4376.6 1823.1 -4376.6 1905.9 -4402.1 1905.9 -4402.1 1797.5 -4354.3 1797.5"/>
    <path class="cls-2" d="M-4453.1,1869.5c0,5.9-4.8,10.7-10.7,10.7h-32.5c-5.9,0-10.7-4.8-10.7-10.7v-72.1h-25.5v72.1c0,20,16.3,36.2,36.2,36.2h32.5c20,0,36.2-16.3,36.2-36.2v-72.1h-25.5v72.1Z"/>
    <path class="cls-2" d="M-4844.8,1839.1h-33.1c-4.4,0-8-3.6-8-8s3.6-8,8-8h66.2v-25.5h-66.2c-18.5,0-33.5,15-33.5,33.5s15,33.5,33.5,33.5h33.1c4.4,0,8,3.6,8,8s-3.6,8-8,8h-66.2v25.5h66.2c18.5,0,33.5-15,33.5-33.5s-15.1-33.5-33.5-33.5Z"/>
    <path class="cls-2" d="M-4660.9,1823v-25.4h66.6c18.5,0,33.5,15.1,33.5,33.6s-10.2,28.1-24.1,32.2l32.7,33.8-18.3,17.7-48.5-50.1h-16.4v41.3h-25.5v-66.8h66.6c4.4,0,8-3.6,8-8s-3.6-8-8-8h-66.6Z"/>
    <polygon class="cls-2" points="-4725.2 1823.1 -4725.2 1905.9 -4750.8 1905.9 -4750.8 1823.1 -4786 1823.1 -4786 1797.5 -4686.4 1797.5 -4686.4 1823 -4725.2 1823.1"/>
    <path class="cls-2" d="M-5084.4,1811.9v-12.1h-4.7v-2.4h11.9v2.4h-4.6v12.1h-2.6ZM-5075.4,1811.9v-14.5h4.8l2.9,12.1h.5l2.9-12.1h4.8v14.5h-2.5v-12.1h-.6l-2.9,12.1h-3.9l-2.9-12.1h-.6v12.1h-2.6Z"/>
    <path class="cls-2" d="M-4202.5,1845.9v-48.5h14.1l10.6,43.5h1.1l10.6-43.5h14.1v48.5h-7.3v-43.3h-1.1l-10.5,43.3h-12.6l-10.5-43.3h-1.1v43.3h-7.3Z"/>
    <path class="cls-2" d="M-4141.9,1845.9v-48.5h30.6v6.8h-23.1v13.9h21.2v6.8h-21.2v14.2h23.4v6.8h-30.9Z"/>
    <path class="cls-2" d="M-4105,1845.9v-6.7h6.5v-35.2h-6.5v-6.7h19.4c6.5,0,11.4,1.6,14.9,4.9,3.4,3.3,5.2,8.2,5.2,14.8v9.1c0,6.6-1.7,11.5-5.2,14.8-3.4,3.3-8.4,4.9-14.9,4.9h-19.4ZM-4090.9,1839.1h5.4c4.2,0,7.3-1.1,9.4-3.2,2-2.1,3.1-5.3,3.1-9.5v-9.6c0-4.3-1-7.4-3.1-9.5-2-2.1-5.2-3.1-9.4-3.1h-5.4v34.9Z"/>
    <path class="cls-2" d="M-4057,1845.9v-48.5h7.5v48.5h-7.5Z"/>
    <path class="cls-2" d="M-4043,1845.9l13.9-48.5h13.2l13.8,48.5h-7.7l-3.2-11.4h-19l-3.2,11.4h-7.8ZM-4030.2,1827.6h15.3l-7.1-25.5h-1.1l-7.1,25.5Z"/>
    <path class="cls-2" d="M-4185.7,1906.8c-3.5,0-6.6-.8-9.3-2.3-2.7-1.5-4.9-3.7-6.4-6.6-1.6-2.9-2.4-6.5-2.4-10.7v-11.4c0-6.3,1.7-11.2,5.2-14.5,3.5-3.4,8.2-5,14.1-5s10.3,1.6,13.5,4.7c3.1,3.2,4.7,7.4,4.7,12.7v.3h-7.4v-.6c0-2-.4-3.8-1.2-5.4-.8-1.6-2-2.9-3.5-3.8-1.6-.9-3.6-1.4-6-1.4-3.7,0-6.6,1.1-8.7,3.4-2.1,2.2-3.1,5.4-3.1,9.3v11.7c0,3.9,1,7,3.1,9.3,2.1,2.3,5,3.4,8.7,3.4s6.4-1,8.1-3.1c1.7-2,2.6-4.7,2.6-7.9v-.9h-13v-6.4h20.5v24h-6.9v-4.9h-1.1c-.4.9-1,1.8-1.8,2.7-.8.9-2,1.7-3.5,2.3-1.5.6-3.5.9-6,.9Z"/>
    <path class="cls-2" d="M-4156.7,1905.8v-48.5h20.4c3,0,5.7.5,7.9,1.6,2.3,1,4.1,2.5,5.3,4.5,1.3,1.9,1.9,4.3,1.9,6.9v.8c0,3.1-.7,5.5-2.2,7.3-1.5,1.8-3.2,3.1-5.3,3.8v1.1c1.8,0,3.2.7,4.2,1.8,1.1,1.1,1.6,2.6,1.6,4.7v16.1h-7.6v-15c0-1.2-.3-2.2-1-3-.6-.7-1.7-1.1-3.1-1.1h-14.8v19.1h-7.5ZM-4149.2,1879.9h12.1c2.7,0,4.8-.7,6.2-2,1.5-1.4,2.2-3.2,2.2-5.6v-.6c0-2.4-.7-4.2-2.2-5.6-1.5-1.4-3.5-2-6.3-2h-12.1v15.8Z"/>
    <path class="cls-2" d="M-4094.6,1906.8c-6,0-10.7-1.7-14.2-5-3.5-3.4-5.3-8.2-5.3-14.5v-11.4c0-6.3,1.8-11.2,5.3-14.5,3.5-3.4,8.3-5,14.2-5s10.7,1.7,14.3,5c3.5,3.4,5.3,8.2,5.3,14.5v11.4c0,6.3-1.8,11.2-5.3,14.5-3.5,3.4-8.3,5-14.3,5ZM-4094.6,1900.1c3.8,0,6.8-1.1,8.9-3.4,2.1-2.2,3.1-5.3,3.1-9.2v-11.9c0-3.9-1-6.9-3.1-9.2-2.1-2.2-5-3.4-8.9-3.4s-6.7,1.1-8.8,3.4c-2.1,2.2-3.2,5.3-3.2,9.2v11.9c0,3.9,1.1,6.9,3.2,9.2,2.1,2.2,5.1,3.4,8.8,3.4Z"/>
    <path class="cls-2" d="M-4048,1906.8c-3.8,0-7.1-.7-9.9-2.1-2.8-1.4-4.9-3.4-6.4-6-1.5-2.6-2.3-5.8-2.3-9.5v-31.9h7.6v32.1c0,3.4.9,6.1,2.8,7.9,1.9,1.8,4.6,2.8,8.1,2.8s6.2-.9,8.1-2.8c1.9-1.8,2.8-4.5,2.8-7.9v-32.1h7.5v31.9c0,3.7-.7,6.9-2.2,9.5-1.5,2.6-3.6,4.6-6.4,6-2.8,1.4-6.1,2.1-9.8,2.1Z"/>
    <path class="cls-2" d="M-4019.8,1905.8v-48.5h19.3c3,0,5.6.6,7.9,1.8,2.3,1.2,4.2,2.8,5.5,5,1.3,2.2,2,4.7,2,7.7v.9c0,3-.7,5.6-2,7.8-1.4,2.2-3.2,3.8-5.5,5-2.3,1.2-4.9,1.7-7.8,1.7h-11.8v18.7h-7.5ZM-4012.3,1880.4h11c2.6,0,4.7-.7,6.3-2.1,1.6-1.4,2.4-3.3,2.4-5.7v-.7c0-2.4-.8-4.4-2.4-5.8-1.6-1.4-3.7-2.1-6.3-2.1h-11v16.3Z"/>
  </g>
  <g>
    <polygon class="cls-4" points="-5089.1 -1108.4 -5070.8 -1090.7 -4982 -1182.4 -4962 -1182.4 -4962 -1099.5 -4936.5 -1099.5 -4936.5 -1207.9 -4992.9 -1207.9 -5089.1 -1108.4"/>
    <polygon class="cls-4" points="-4354.3 -1207.9 -4319.8 -1172.2 -4285.3 -1207.9 -4237.4 -1207.9 -4237.4 -1099.5 -4263 -1099.5 -4263 -1182.4 -4274.5 -1182.4 -4302 -1153.9 -4284.6 -1135.8 -4302.9 -1118.1 -4365.1 -1182.4 -4376.6 -1182.4 -4376.6 -1099.5 -4402.1 -1099.5 -4402.1 -1207.9 -4354.3 -1207.9"/>
    <path class="cls-4" d="M-4453.1-1135.9c0,5.9-4.8,10.7-10.7,10.7h-32.5c-5.9,0-10.7-4.8-10.7-10.7v-72.1h-25.5v72.1c0,20,16.3,36.2,36.2,36.2h32.5c20,0,36.2-16.3,36.2-36.2v-72.1h-25.5v72.1Z"/>
    <path class="cls-4" d="M-4844.8-1166.3h-33.1c-4.4,0-8-3.6-8-8s3.6-8,8-8h66.2v-25.5h-66.2c-18.5,0-33.5,15-33.5,33.5s15,33.5,33.5,33.5h33.1c4.4,0,8,3.6,8,8s-3.6,8-8,8h-66.2v25.5h66.2c18.5,0,33.5-15,33.5-33.5s-15.1-33.5-33.5-33.5Z"/>
    <path class="cls-4" d="M-4660.9-1182.4v-25.4h66.6c18.5,0,33.5,15.1,33.5,33.6s-10.2,28.1-24.1,32.2l32.7,33.8-18.3,17.7-48.5-50.1h-16.4v41.3h-25.5v-66.8h66.6c4.4,0,8-3.6,8-8s-3.6-8-8-8h-66.6Z"/>
    <polygon class="cls-4" points="-4725.2 -1182.4 -4725.2 -1099.5 -4750.8 -1099.5 -4750.8 -1182.4 -4786 -1182.4 -4786 -1207.9 -4686.4 -1207.9 -4686.4 -1182.4 -4725.2 -1182.4"/>
    <path class="cls-4" d="M-5084.4-1193.5v-12.1h-4.7v-2.4h11.9v2.4h-4.6v12.1h-2.6ZM-5075.4-1193.5v-14.5h4.8l2.9,12.1h.5l2.9-12.1h4.8v14.5h-2.5v-12.1h-.6l-2.9,12.1h-3.9l-2.9-12.1h-.6v12.1h-2.6Z"/>
    <path class="cls-4" d="M-4202.5-1159.5v-48.5h14.1l10.6,43.5h1.1l10.6-43.5h14.1v48.5h-7.3v-43.3h-1.1l-10.5,43.3h-12.6l-10.5-43.3h-1.1v43.3h-7.3Z"/>
    <path class="cls-4" d="M-4141.9-1159.5v-48.5h30.6v6.8h-23.1v13.9h21.2v6.8h-21.2v14.2h23.4v6.8h-30.9Z"/>
    <path class="cls-4" d="M-4105-1159.5v-6.7h6.5v-35.2h-6.5v-6.7h19.4c6.5,0,11.4,1.6,14.9,4.9,3.4,3.3,5.2,8.2,5.2,14.8v9.1c0,6.6-1.7,11.5-5.2,14.8-3.4,3.3-8.4,4.9-14.9,4.9h-19.4ZM-4090.9-1166.3h5.4c4.2,0,7.3-1.1,9.4-3.2,2-2.1,3.1-5.3,3.1-9.5v-9.6c0-4.3-1-7.4-3.1-9.5-2-2.1-5.2-3.1-9.4-3.1h-5.4v34.9Z"/>
    <path class="cls-4" d="M-4057-1159.5v-48.5h7.5v48.5h-7.5Z"/>
    <path class="cls-4" d="M-4043-1159.5l13.9-48.5h13.2l13.8,48.5h-7.7l-3.2-11.4h-19l-3.2,11.4h-7.8ZM-4030.2-1177.9h15.3l-7.1-25.5h-1.1l-7.1,25.5Z"/>
    <path class="cls-4" d="M-4185.7-1098.6c-3.5,0-6.6-.8-9.3-2.3-2.7-1.5-4.9-3.7-6.4-6.6-1.6-2.9-2.4-6.5-2.4-10.7v-11.4c0-6.3,1.7-11.2,5.2-14.5,3.5-3.4,8.2-5,14.1-5s10.3,1.6,13.5,4.7c3.1,3.2,4.7,7.4,4.7,12.7v.3h-7.4v-.6c0-2-.4-3.8-1.2-5.4-.8-1.6-2-2.9-3.5-3.8-1.6-.9-3.6-1.4-6-1.4-3.7,0-6.6,1.1-8.7,3.4-2.1,2.2-3.1,5.4-3.1,9.3v11.7c0,3.9,1,7,3.1,9.3,2.1,2.3,5,3.4,8.7,3.4s6.4-1,8.1-3.1c1.7-2,2.6-4.7,2.6-7.9v-.9h-13v-6.4h20.5v24h-6.9v-4.9h-1.1c-.4.9-1,1.8-1.8,2.7-.8.9-2,1.7-3.5,2.3-1.5.6-3.5.9-6,.9Z"/>
    <path class="cls-4" d="M-4156.7-1099.6v-48.5h20.4c3,0,5.7.5,7.9,1.6,2.3,1,4.1,2.5,5.3,4.5,1.3,1.9,1.9,4.3,1.9,6.9v.8c0,3.1-.7,5.5-2.2,7.3-1.5,1.8-3.2,3.1-5.3,3.8v1.1c1.8,0,3.2.7,4.2,1.8,1.1,1.1,1.6,2.6,1.6,4.7v16.1h-7.6v-15c0-1.2-.3-2.2-1-3-.6-.7-1.7-1.1-3.1-1.1h-14.8v19.1h-7.5ZM-4149.2-1125.5h12.1c2.7,0,4.8-.7,6.2-2,1.5-1.4,2.2-3.2,2.2-5.6v-.6c0-2.4-.7-4.2-2.2-5.6-1.5-1.4-3.5-2-6.3-2h-12.1v15.8Z"/>
    <path class="cls-4" d="M-4094.6-1098.6c-6,0-10.7-1.7-14.2-5-3.5-3.4-5.3-8.2-5.3-14.5v-11.4c0-6.3,1.8-11.2,5.3-14.5,3.5-3.4,8.3-5,14.2-5s10.7,1.7,14.3,5c3.5,3.4,5.3,8.2,5.3,14.5v11.4c0,6.3-1.8,11.2-5.3,14.5-3.5,3.4-8.3,5-14.3,5ZM-4094.6-1105.4c3.8,0,6.8-1.1,8.9-3.4,2.1-2.2,3.1-5.3,3.1-9.2v-11.9c0-3.9-1-6.9-3.1-9.2-2.1-2.2-5-3.4-8.9-3.4s-6.7,1.1-8.8,3.4c-2.1,2.2-3.2,5.3-3.2,9.2v11.9c0,3.9,1.1,6.9,3.2,9.2,2.1,2.2,5.1,3.4,8.8,3.4Z"/>
    <path class="cls-4" d="M-4048-1098.6c-3.8,0-7.1-.7-9.9-2.1-2.8-1.4-4.9-3.4-6.4-6-1.5-2.6-2.3-5.8-2.3-9.5v-31.9h7.6v32.1c0,3.4.9,6.1,2.8,7.9,1.9,1.8,4.6,2.8,8.1,2.8s6.2-.9,8.1-2.8c1.9-1.8,2.8-4.5,2.8-7.9v-32.1h7.5v31.9c0,3.7-.7,6.9-2.2,9.5-1.5,2.6-3.6,4.6-6.4,6-2.8,1.4-6.1,2.1-9.8,2.1Z"/>
    <path class="cls-4" d="M-4019.8-1099.6v-48.5h19.3c3,0,5.6.6,7.9,1.8,2.3,1.2,4.2,2.8,5.5,5,1.3,2.2,2,4.7,2,7.7v.9c0,3-.7,5.6-2,7.8-1.4,2.2-3.2,3.8-5.5,5-2.3,1.2-4.9,1.7-7.8,1.7h-11.8v18.7h-7.5ZM-4012.3-1125.1h11c2.6,0,4.7-.7,6.3-2.1,1.6-1.4,2.4-3.3,2.4-5.7v-.7c0-2.4-.8-4.4-2.4-5.8-1.6-1.4-3.7-2.1-6.3-2.1h-11v16.3Z"/>
  </g>
  <g>
    <polygon class="cls-2" points="0 26.3 4.8 31 28.3 6.8 33.6 6.8 33.6 28.7 40.3 28.7 40.3 0 25.4 0 0 26.3"/>
    <polygon class="cls-2" points="194.1 0 203.2 9.5 212.3 0 225 0 225 28.7 218.2 28.7 218.2 6.8 215.2 6.8 207.9 14.3 212.5 19.1 207.7 23.8 191.2 6.8 188.2 6.8 188.2 28.7 181.5 28.7 181.5 0 194.1 0"/>
    <path class="cls-2" d="M168,19c0,1.6-1.3,2.8-2.8,2.8h-8.6c-1.6,0-2.8-1.3-2.8-2.8V0h-6.7v19c0,5.3,4.3,9.6,9.6,9.6h8.6c5.3,0,9.6-4.3,9.6-9.6V0h-6.7v19Z"/>
    <path class="cls-2" d="M64.5,11h-8.7c-1.2,0-2.1-1-2.1-2.1s1-2.1,2.1-2.1h17.5V0h-17.5c-4.9,0-8.9,4-8.9,8.9s4,8.9,8.9,8.9h8.7c1.2,0,2.1,1,2.1,2.1s-1,2.1-2.1,2.1h-17.5v6.7h17.5c4.9,0,8.9-4,8.9-8.9s-4-8.9-8.9-8.9Z"/>
    <path class="cls-2" d="M113.1,6.8V0h17.6c4.9,0,8.9,4,8.9,8.9s-2.7,7.4-6.4,8.5l8.6,8.9-4.8,4.7-12.8-13.2h-4.3v10.9h-6.7V11h17.6c1.2,0,2.1-1,2.1-2.1s-1-2.1-2.1-2.1h-17.6Z"/>
    <polygon class="cls-2" points="96.1 6.8 96.1 28.7 89.4 28.7 89.4 6.8 80.1 6.8 80.1 0 106.4 0 106.4 6.8 96.1 6.8"/>
    <path class="cls-2" d="M1.2,3.8V.6H0v-.6h3.1v.6h-1.2v3.2h-.7ZM3.6,3.8V0h1.3l.8,3.2h.1l.8-3.2h1.3v3.8h-.7V.6h-.1l-.8,3.2h-1l-.8-3.2h-.1v3.2h-.7Z"/>
    <path class="cls-2" d="M234.2,12.8V0h3.7l2.8,11.5h.3l2.8-11.5h3.7v12.8h-1.9V1.4h-.3l-2.8,11.4h-3.3l-2.8-11.4h-.3v11.4h-1.9Z"/>
    <path class="cls-2" d="M250.2,12.8V0h8.1v1.8h-6.1v3.7h5.6v1.8h-5.6v3.8h6.2v1.8h-8.2Z"/>
    <path class="cls-2" d="M259.9,12.8v-1.8h1.7V1.8h-1.7V0h5.1c1.7,0,3,.4,3.9,1.3.9.9,1.4,2.2,1.4,3.9v2.4c0,1.7-.5,3-1.4,3.9-.9.9-2.2,1.3-3.9,1.3h-5.1ZM263.7,11h1.4c1.1,0,1.9-.3,2.5-.8.5-.6.8-1.4.8-2.5v-2.5c0-1.1-.3-2-.8-2.5-.5-.5-1.4-.8-2.5-.8h-1.4v9.2Z"/>
    <path class="cls-2" d="M272.6,12.8V0h2v12.8h-2Z"/>
    <path class="cls-2" d="M276.3,12.8l3.7-12.8h3.5l3.6,12.8h-2l-.8-3h-5l-.8,3h-2.1ZM279.7,8h4l-1.9-6.7h-.3l-1.9,6.7Z"/>
    <path class="cls-2" d="M238.6,28.9c-.9,0-1.7-.2-2.5-.6-.7-.4-1.3-1-1.7-1.7-.4-.8-.6-1.7-.6-2.8v-3c0-1.7.5-3,1.4-3.8.9-.9,2.2-1.3,3.7-1.3s2.7.4,3.6,1.3c.8.8,1.2,2,1.2,3.4h0c0,0-2,0-2,0h0c0-.7-.1-1.1-.3-1.6-.2-.4-.5-.8-.9-1-.4-.2-.9-.4-1.6-.4-1,0-1.7.3-2.3.9-.5.6-.8,1.4-.8,2.5v3.1c0,1,.3,1.9.8,2.5.5.6,1.3.9,2.3.9s1.7-.3,2.1-.8c.5-.5.7-1.2.7-2.1v-.2h-3.4v-1.7h5.4v6.3h-1.8v-1.3h-.3c-.1.2-.3.5-.5.7-.2.2-.5.4-.9.6-.4.2-.9.2-1.6.2Z"/>
    <path class="cls-2" d="M246.3,28.6v-12.8h5.4c.8,0,1.5.1,2.1.4.6.3,1.1.7,1.4,1.2.3.5.5,1.1.5,1.8v.2c0,.8-.2,1.5-.6,1.9-.4.5-.9.8-1.4,1v.3c.5,0,.8.2,1.1.5.3.3.4.7.4,1.2v4.2h-2v-4c0-.3,0-.6-.3-.8-.2-.2-.4-.3-.8-.3h-3.9v5.1h-2ZM248.3,21.8h3.2c.7,0,1.3-.2,1.6-.5.4-.4.6-.9.6-1.5h0c0-.8-.2-1.3-.6-1.6-.4-.4-.9-.5-1.7-.5h-3.2v4.2Z"/>
    <path class="cls-2" d="M262.7,28.9c-1.6,0-2.8-.4-3.8-1.3-.9-.9-1.4-2.2-1.4-3.8v-3c0-1.7.5-3,1.4-3.8.9-.9,2.2-1.3,3.8-1.3s2.8.4,3.8,1.3c.9.9,1.4,2.2,1.4,3.8v3c0,1.7-.5,3-1.4,3.8s-2.2,1.3-3.8,1.3ZM262.7,27.1c1,0,1.8-.3,2.3-.9.5-.6.8-1.4.8-2.4v-3.2c0-1-.3-1.8-.8-2.4-.5-.6-1.3-.9-2.3-.9s-1.8.3-2.3.9c-.6.6-.8,1.4-.8,2.4v3.2c0,1,.3,1.8.8,2.4.6.6,1.3.9,2.3.9Z"/>
    <path class="cls-2" d="M275,28.9c-1,0-1.9-.2-2.6-.5-.7-.4-1.3-.9-1.7-1.6-.4-.7-.6-1.5-.6-2.5v-8.4h2v8.5c0,.9.3,1.6.8,2.1.5.5,1.2.7,2.1.7s1.6-.2,2.1-.7c.5-.5.8-1.2.8-2.1v-8.5h2v8.4c0,1-.2,1.8-.6,2.5-.4.7-1,1.2-1.7,1.6-.7.4-1.6.5-2.6.5Z"/>
    <path class="cls-2" d="M282.4,28.6v-12.8h5.1c.8,0,1.5.2,2.1.5.6.3,1.1.8,1.4,1.3.3.6.5,1.2.5,2v.2c0,.8-.2,1.5-.5,2.1-.4.6-.8,1-1.5,1.3-.6.3-1.3.5-2.1.5h-3.1v4.9h-2ZM284.4,21.9h2.9c.7,0,1.3-.2,1.7-.5.4-.4.6-.9.6-1.5v-.2c0-.6-.2-1.2-.6-1.5-.4-.4-1-.5-1.7-.5h-2.9v4.3Z"/>
  </g>
</svg>