<?xml version="1.0" encoding="UTF-8"?><svg id="Layer_1" xmlns="http://www.w3.org/2000/svg" viewBox="0 0 645.63 118.75"><defs><style>.cls-1{font-family:SpaceGrotesk-Bold, 'Space Grotesk';font-size:22.61px;font-variation-settings:'wght' 700;font-weight:700;}.cls-1,.cls-2{fill:#000;}.cls-3{letter-spacing:0em;}.cls-2{stroke-width:0px;}</style></defs><text class="cls-1" transform="translate(511.13 88.05) scale(.98 1)"><tspan x="0" y="0">PRODUCTION</tspan><tspan x="0" y="22.52">COMPAN</tspan><tspan class="cls-3" x="92.93" y="22.52">Y</tspan></text><polygon class="cls-2" points="427.24 87.03 453.96 97.27 453.96 99.96 427.24 99.96 427.24 110.86 464.82 110.86 464.82 89.09 438.14 78.85 438.14 76.14 464.82 76.14 464.82 65.25 427.24 65.25 427.24 87.03"/><polygon class="cls-2" points="381.9 65.25 371.67 100 367.01 100 356.77 65.25 333.54 65.25 320.12 110.86 331.45 110.86 341.69 76.14 348.63 76.14 358.83 110.86 379.81 110.86 390.05 76.14 396.99 76.14 407.23 110.86 418.55 110.86 405.13 65.25 381.9 65.25"/><polygon class="cls-2" points="265.17 76.14 265.17 65.25 227.59 65.25 227.59 76.14 240.95 76.14 240.95 99.96 227.59 99.96 227.59 110.86 265.17 110.86 265.17 99.96 251.81 99.96 251.81 76.14 265.17 76.14"/><polygon class="cls-2" points="284.72 65.25 273.86 65.25 273.86 110.86 311.44 110.86 311.44 99.96 284.72 99.96 284.72 65.25"/><polygon class="cls-2" points="218.91 76.15 218.91 65.25 181.33 65.25 181.33 110.86 192.19 110.86 192.19 100 206.38 100.01 206.38 89.11 192.19 89.1 192.19 76.15 218.91 76.15"/><rect class="cls-2" x="475.63" y="100.05" width="10.81" height="10.81"/><path class="cls-2" d="M542.41,2.26c-4.29,0-7.55,3.33-7.55,7.53,0,4.2,3.26,7.53,7.51,7.53,4.24,0,7.55-3.33,7.55-7.57,0-4.25-3.22-7.49-7.51-7.49ZM542.37,15.93c-3.48,0-6.04-2.69-6.04-6.14,0-3.46,2.56-6.14,6.08-6.14,3.52,0,6.06,2.62,6.06,6.1,0,3.48-2.62,6.19-6.1,6.19Z"/><path class="cls-2" d="M546.34,8.59c0-1.79-1.34-2.94-3.61-2.94h-3.61v8.28h2.22v-2.39s1.39,0,1.39,0h.09s1.56,2.39,1.56,2.39h2.22s-1.81-2.77-1.81-2.77c1-.47,1.56-1.34,1.56-2.56ZM542.58,9.87h-1.26s0-2.58,0-2.58h1.26c1,0,1.58.47,1.58,1.3s-.58,1.28-1.58,1.28Z"/><path class="cls-2" d="M419.11,25.05c0,6.59-5.31,11.94-11.9,11.94-6.59,0-11.94-5.35-11.94-11.94V2.25s-10.86,0-10.86,0v22.8c0,4.38,1.24,8.49,3.37,11.94,1.86,3.02,4.42,5.62,7.48,7.44,3.45,2.17,7.52,3.41,11.94,3.41,4.38,0,8.45-1.24,11.9-3.37,3.06-1.86,5.66-4.42,7.52-7.48,2.13-3.45,3.37-7.56,3.37-11.94V2.25s-10.9,0-10.9,0v22.8Z"/><polygon class="cls-2" points="284.14 13.15 299.44 13.15 299.44 47.85 310.3 47.85 310.3 13.15 325.59 13.15 325.59 2.25 284.14 2.25 284.14 13.15"/><polygon class="cls-2" points="237.89 24.03 264.6 34.27 264.6 36.95 237.89 36.95 237.89 47.85 275.46 47.85 275.46 26.08 248.78 15.85 248.78 13.15 275.46 13.15 275.46 2.25 237.89 2.25 237.89 24.03"/><path class="cls-2" d="M194.45,2.25l-13.38,45.6h11.32s3.22-10.86,3.22-10.86h20.12s3.22,10.86,3.22,10.86h11.32s-13.38-45.6-13.38-45.6h-22.45ZM198.79,26.1l3.84-12.95h6.09s3.84,12.95,3.84,12.95h-13.76Z"/><polygon class="cls-2" points="498.22 2.25 487.98 36.99 483.33 36.99 473.09 2.25 449.87 2.25 436.45 47.85 447.77 47.85 458.01 13.15 464.95 13.15 475.15 47.85 496.13 47.85 506.36 13.15 513.3 13.15 523.54 47.85 534.86 47.85 521.45 2.25 498.22 2.25"/><path class="cls-2" d="M374.49,26.1c.78-2.02,1.24-4.19,1.24-6.48,0-2.29-.47-4.46-1.24-6.48-.89-2.21-2.25-4.19-3.84-5.82-1.67-1.63-3.64-2.95-5.82-3.84-2.06-.81-4.23-1.24-6.51-1.24h-24.04s0,45.6,0,45.6h10.89s0-10.86,0-10.86h13.07c.97,0,1.9-.12,2.83-.27l3.3,11.13h11.36s-4.83-16.4-4.83-16.4c.66-.7,1.29-1.42,1.84-2.23.7-.97,1.28-2.02,1.75-3.14ZM362.85,24.2c-.16.19-.35.35-.54.5-.23.19-.46.31-.7.47-.27.16-.58.31-.85.43-.77.31-1.63.5-2.52.5h-13.07s0-12.95,0-12.95h13.07c.89,0,1.75.19,2.52.5.27.12.58.27.85.43.23.12.47.27.66.47h.04c.19.16.39.31.54.5,1.16,1.2,1.86,2.83,1.86,4.58,0,1.74-.7,3.37-1.86,4.58Z"/><path class="cls-2" d="M93.3,0h-58.46L0,118.75h29.49l8.37-28.27h22.58c-.34-21.36-6.63-26.95-28.91-26.95v-7.18c22.98,0,28.94-5.9,28.94-28.94h7.18c0,23.04,5.96,28.94,28.94,28.94v7.18c-22.28,0-28.57,5.59-28.91,26.95h22.58l8.4,28.27h29.49L93.3,0Z"/></svg>