<?xml version="1.0" encoding="UTF-8"?><svg id="Layer_1" xmlns="http://www.w3.org/2000/svg" viewBox="0 0 627.27 157.16"><defs><style>.cls-1{fill:#fff;stroke-width:0px;}</style></defs><path class="cls-1" d="M22.12,56.08v98.86H0V56.08h22.12Z"/><path class="cls-1" d="M79.77,133.51h21.98c-3.87,14.24-14.93,23.64-34.15,23.64-23.51,0-37.75-15.48-37.75-37.61s13.97-37.61,36.5-37.61c24.2,0,36.5,17.7,36.5,43.41h-50.88c0,9.96,7.33,15.21,15.21,15.21s11.2-3.59,12.58-7.05ZM51.98,111.94h28.76c0-9.82-5.95-14.79-14.38-14.79s-14.38,4.98-14.38,14.79Z"/><path class="cls-1" d="M124.7,84.15l14.38,46.18h.28l14.38-46.18h22.12l-24.47,70.79h-24.34l-24.47-70.79h22.12Z"/><path class="cls-1" d="M224.79,133.51h21.98c-3.87,14.24-14.93,23.64-34.15,23.64-23.51,0-37.75-15.48-37.75-37.61s13.97-37.61,36.5-37.61c24.2,0,36.5,17.7,36.5,43.41h-50.88c0,9.96,7.33,15.21,15.21,15.21s11.2-3.59,12.58-7.05ZM197,111.94h28.76c0-9.82-5.95-14.79-14.38-14.79s-14.38,4.98-14.38,14.79Z"/><path class="cls-1" d="M277.73,56.08v98.86h-22.12V56.08h22.12Z"/><rect class="cls-1" x="304.78" width="154.94" height="37.37"/><path class="cls-1" d="M425.06,56.06h-85.61l-13.57,80.2h-21.09v18.69h55.3l4.09-24.14h36.17l4.09,24.14h55.3v-18.69h-21.09l-13.57-80.2ZM367.33,112.12l6.33-37.37h17.19l6.33,37.37h-29.84Z"/><path class="cls-1" d="M441.89,65.07c0-5.18,3.95-9.01,8.94-9.01s8.9,3.84,8.9,9.01-3.91,9.01-8.9,9.01-8.94-3.84-8.94-9.01ZM457.49,65.03c0-4.32-2.53-7.15-6.67-7.15s-6.7,2.83-6.7,7.15,2.57,7.19,6.7,7.19,6.67-2.83,6.67-7.19ZM446.91,60.19h4.58c2.12,0,3.43.97,3.43,2.79,0,1.3-.75,2.12-1.94,2.38v.04c2.42.41,1.53,4.17,2.09,4.32v.15h-2.53c-.49-.41.41-3.39-1.68-3.39h-1.53v3.39h-2.42v-9.68ZM449.33,64.51h1.68c.97,0,1.49-.37,1.49-1.15s-.52-1.19-1.49-1.19h-1.68v2.35Z"/><path class="cls-1" d="M486.03,81.97h12.26c7.7,0,12.34,4.95,12.34,13.85s-4.26,13.81-11.96,13.81h-12.65v-27.66ZM493,103.94h4.6c4.33,0,6.07-3.09,6.07-8.12s-1.74-8.16-6.07-8.16h-4.6v16.29Z"/><path class="cls-1" d="M513.69,84.72c0-1.78,1.35-2.75,3.09-2.75s3.1.97,3.1,2.75-1.35,2.75-3.1,2.75-3.09-.93-3.09-2.75ZM519.88,89.82v19.81h-6.19v-19.81h6.19Z"/><path class="cls-1" d="M542.79,89.82v17.88c0,6.54-3.75,8.78-9.75,8.78s-9.17-3.25-9.87-6.42h6.19c.39,1.08,1.35,1.97,3.52,1.97,2.79,0,3.71-1.47,3.71-4.76v-1.16h-.08c-.77,1.04-2.51,2.59-5.42,2.59-5.07,0-8.32-4.02-8.32-9.75s3.25-9.75,8.32-9.75c2.9,0,4.64,1.55,5.42,2.59h.08v-1.97h6.19ZM536.48,98.95c0-3.21-1.24-5.11-3.75-5.11s-3.75,1.9-3.75,5.11,1.24,5.11,3.75,5.11,3.75-1.9,3.75-5.11Z"/><path class="cls-1" d="M546.57,84.72c0-1.78,1.35-2.75,3.09-2.75s3.1.97,3.1,2.75-1.35,2.75-3.1,2.75-3.09-.93-3.09-2.75ZM552.76,89.82v19.81h-6.19v-19.81h6.19Z"/><path class="cls-1" d="M564.41,94.47v8.2c0,2.24.81,2.24,3.44,2.24v4.64c-1.12.23-2.09.43-3.83.43-4.53,0-5.8-2.4-5.8-6.85v-8.67h-2.75v-4.64h2.75v-5.53h6.19v5.53h3.44v4.64h-3.44Z"/><path class="cls-1" d="M580.46,93.46c-2.24,0-3.33.85-3.52,2.75h-5.8c.19-3.79,2.9-7,9.36-7,5.57,0,8.67,2.17,8.67,8.4v9.09c0,1.04.39,1.47,1.16,1.47v1.47c-1.24.46-2.36.62-3.6.62-2.79,0-3.56-1.32-3.56-2.71h-.08c-1.28,1.47-3.6,2.71-6.23,2.71-4.18,0-6.5-2.36-6.5-5.69,0-3.95,2.9-5.76,7.54-6.69,2.55-.5,5.07-.89,5.07-2.55,0-1.16-.81-1.86-2.52-1.86ZM582.98,102.4v-2.4c-.77.31-1.74.58-3.17.89-2.44.54-3.25,1.55-3.25,2.78,0,1.63.97,2.32,2.48,2.32,2.67,0,3.95-1.7,3.95-3.6Z"/><path class="cls-1" d="M599.69,81.97v27.66h-6.19v-27.66h6.19Z"/><path class="cls-1" d="M492.84,143.75l-1.78,5.76h-6.96l10.02-27.66h6.96l9.98,27.66h-6.96l-1.78-5.76h-9.48ZM500.77,138.44l-3.13-10.21h-.08l-3.13,10.21h6.34Z"/><path class="cls-1" d="M531.53,129.7v17.88c0,6.54-3.75,8.78-9.75,8.78s-9.17-3.25-9.87-6.42h6.19c.39,1.08,1.35,1.97,3.52,1.97,2.79,0,3.71-1.47,3.71-4.76v-1.16h-.08c-.77,1.04-2.51,2.59-5.42,2.59-5.07,0-8.32-4.02-8.32-9.75s3.25-9.75,8.32-9.75c2.9,0,4.64,1.55,5.42,2.59h.08v-1.97h6.19ZM525.22,138.83c0-3.21-1.24-5.11-3.75-5.11s-3.75,1.9-3.75,5.11,1.24,5.11,3.75,5.11,3.75-1.9,3.75-5.11Z"/><path class="cls-1" d="M548.39,143.51h6.15c-1.08,3.99-4.18,6.62-9.56,6.62-6.58,0-10.56-4.33-10.56-10.52s3.91-10.52,10.21-10.52c6.77,0,10.21,4.95,10.21,12.15h-14.24c0,2.78,2.05,4.26,4.26,4.26s3.13-1.01,3.52-1.97ZM540.62,137.48h8.05c0-2.75-1.66-4.14-4.02-4.14s-4.02,1.39-4.02,4.14Z"/><path class="cls-1" d="M576.94,136.12v13.39h-6.19v-11.41c0-2.98-1.04-3.99-3.09-3.99-2.36,0-3.71,1.2-3.71,3.95v11.45h-6.19v-19.81h6.19v2.86h.08c1.04-1.82,2.98-3.48,6.5-3.48,3.83,0,6.42,2.51,6.42,7.04Z"/><path class="cls-1" d="M589.86,133.72c-2.55,0-3.98,2.17-3.98,5.88s1.39,5.88,3.98,5.88,3.33-1.66,3.52-3.44h6.07c-.31,4.68-3.87,8.09-9.56,8.09-6.27,0-10.21-4.33-10.21-10.52s3.95-10.52,10.06-10.52c5.76,0,9.21,3.4,9.71,8.01h-6.07c-.19-1.59-1.04-3.37-3.52-3.37Z"/><path class="cls-1" d="M614.2,149.9c-1.7,5.07-3.56,6.46-7.74,6.46-1.04,0-2.17-.12-3.44-.39v-4.64h.08c1.7.39,3.09.19,3.75-.81.58-.89.46-2.13-.15-3.87l-6.46-16.95h6.19l4.49,13h.08l3.75-13h6.19l-6.73,20.2Z"/><path class="cls-1" d="M620.69,146.57c0-1.97,1.43-3.29,3.29-3.29s3.29,1.32,3.29,3.29-1.47,3.29-3.29,3.29-3.29-1.28-3.29-3.29Z"/></svg>