<?xml version="1.0" encoding="UTF-8"?><svg id="Layer_1" xmlns="http://www.w3.org/2000/svg" viewBox="0 0 523.87 236.68"><defs><style>.cls-1{fill:#fff;stroke-width:0px;}</style></defs><rect class="cls-1" x="304.73" y="85.69" width="42.86" height="42.86"/><rect class="cls-1" x="176.15" y="107.12" width="42.86" height="21.43"/><polygon class="cls-1" points="304.8 0 261.87 42.93 219.01 .06 176.15 .06 176.15 42.93 219.14 85.91 262 85.91 262 85.85 304.67 85.85 347.66 42.86 347.66 0 304.8 0"/><path class="cls-1" d="M376.42,0c-5.17,0-9.14,4.01-9.14,9.09s3.96,9.09,9.09,9.09,9.11-4.01,9.11-9.14-3.89-9.04-9.07-9.04ZM376.37,16.5c-4.22,0-7.3-3.24-7.3-7.41s3.08-7.41,7.34-7.41,7.32,3.17,7.32,7.36-3.17,7.46-7.36,7.46Z"/><path class="cls-1" d="M381.15,7.64c0-2.17-1.63-3.54-4.36-3.54h-4.33v9.98h2.66v-2.87h1.79l1.86,2.87h2.68l-2.19-3.33c1.21-.58,1.89-1.63,1.89-3.1ZM376.63,9.18h-1.54v-3.1h1.54c1.21,0,1.89.56,1.89,1.56s-.68,1.54-1.89,1.54Z"/><polygon class="cls-1" points="338.55 168.73 338.55 232.89 322.24 232.89 283.12 191.69 283.12 232.89 266.81 232.89 266.81 168.73 283.18 168.73 322.24 209.84 322.24 168.73 338.55 168.73"/><polygon class="cls-1" points="72.49 168.73 44.44 198.26 16.37 168.73 0 168.73 0 232.89 16.31 232.89 16.31 191.69 44.44 221.3 72.56 191.69 72.56 232.89 88.87 232.89 88.87 168.73 72.49 168.73"/><polygon class="cls-1" points="507.5 168.73 479.45 198.26 451.38 168.73 435 168.73 435 232.89 451.31 232.89 451.31 191.69 479.45 221.3 507.56 191.69 507.56 232.89 523.87 232.89 523.87 168.73 507.5 168.73"/><polygon class="cls-1" points="163.74 232.89 181.74 232.89 151.96 168.73 131.01 168.73 101.22 232.89 119.23 232.89 125.15 220.1 146.42 220.1 152.11 207.87 130.84 207.87 141.48 184.93 163.74 232.89"/><path class="cls-1" d="M406.34,168.73v29.9c0,10.82-8.75,19.55-19.55,19.55s-18.99-8.2-19.53-18.54l.02-30.91h-16.37v32.07c0,6.31,1.63,12.23,4.48,17.38,2.85,5.13,6.91,9.49,11.82,12.66,5.64,3.71,12.36,5.84,19.57,5.84s13.93-2.12,19.55-5.82c4.91-3.18,8.97-7.55,11.83-12.68,2.85-5.15,4.48-11.07,4.48-17.38v-32.07h-16.31Z"/><path class="cls-1" d="M253.87,194.45h-35.28v16.31h16.82c-3.39,5.75-9.68,9.61-16.85,9.61s-13.43-3.86-16.82-9.61c-1.74-2.9-2.73-6.29-2.73-9.94,0-2.23.36-4.38,1.05-6.37,2.64-7.68,9.94-13.2,18.5-13.2,4.61,0,8.86,1.61,12.21,4.29l6.95-15.04c-5.54-3.54-12.12-5.56-19.16-5.56-19.81,0-35.86,16.07-35.86,35.88s16.05,35.86,35.86,35.86c16.37,0,30.17-10.94,34.47-25.92.92-3.15,1.42-6.48,1.42-9.94,0-2.17-.19-4.31-.58-6.37Z"/><path class="cls-1" d="M7.92,128.56c-1.51,0-2.87-.28-4.07-.83-1.2-.55-2.14-1.38-2.83-2.5-.69-1.11-1.03-2.51-1.03-4.18v-.64h2.48v.64c0,1.78.51,3.1,1.52,3.96,1.02.87,2.32,1.3,3.92,1.3s2.88-.38,3.74-1.13c.86-.75,1.29-1.7,1.29-2.85,0-.8-.19-1.43-.58-1.9-.39-.47-.93-.85-1.63-1.15-.7-.3-1.51-.56-2.45-.78l-1.55-.4c-1.22-.33-2.29-.72-3.23-1.19-.94-.47-1.67-1.09-2.2-1.85-.53-.77-.79-1.75-.79-2.96s.29-2.25.88-3.12c.59-.88,1.42-1.55,2.48-2.02,1.07-.47,2.3-.7,3.69-.7s2.68.25,3.81.75c1.13.5,2.01,1.23,2.66,2.2.65.97.97,2.19.97,3.66v1.29h-2.48v-1.29c0-1.04-.22-1.88-.64-2.51-.43-.63-1.02-1.1-1.76-1.41-.75-.31-1.6-.46-2.56-.46-1.38,0-2.48.31-3.32.93-.84.62-1.26,1.51-1.26,2.65,0,.75.18,1.37.54,1.84s.87.85,1.52,1.15c.66.3,1.45.56,2.36.78l1.55.4c1.22.27,2.31.63,3.27,1.09.97.46,1.74,1.08,2.32,1.87.58.79.87,1.81.87,3.08s-.31,2.37-.93,3.31c-.62.94-1.49,1.67-2.62,2.19-1.13.52-2.45.78-3.96.78Z"/><path class="cls-1" d="M23.53,128.13v-19.1h-6.73v-2.33h15.96v2.33h-6.73v19.1h-2.51Z"/><path class="cls-1" d="M43.53,128.56c-1.55,0-2.91-.29-4.07-.86-1.16-.57-2.05-1.42-2.69-2.56s-.96-2.53-.96-4.18v-14.27h2.48v14.3c0,1.76.46,3.07,1.38,3.95.92.88,2.2,1.32,3.86,1.32s2.94-.44,3.86-1.32c.92-.88,1.38-2.19,1.38-3.95v-14.3h2.51v14.27c0,1.65-.32,3.05-.96,4.18s-1.54,1.99-2.71,2.56c-1.17.57-2.53.86-4.08.86Z"/><path class="cls-1" d="M54.89,128.13v-2.3h2.93v-16.84h-2.93v-2.3h8.16c2.75,0,4.88.71,6.38,2.14,1.5,1.43,2.26,3.62,2.26,6.58v3.98c0,2.98-.75,5.18-2.26,6.6-1.51,1.42-3.63,2.13-6.38,2.13h-8.16ZM60.33,125.8h2.72c2.03,0,3.57-.51,4.6-1.53,1.04-1.02,1.55-2.6,1.55-4.75v-4.19c0-2.18-.52-3.78-1.55-4.78-1.04-1-2.57-1.5-4.6-1.5h-2.72v16.75Z"/><path class="cls-1" d="M75.7,128.13v-21.43h2.51v21.43h-2.51Z"/><path class="cls-1" d="M90.58,128.56c-2.49,0-4.48-.74-5.96-2.22-1.48-1.48-2.23-3.64-2.23-6.48v-4.9c0-2.84.74-5,2.23-6.48,1.48-1.48,3.47-2.22,5.96-2.22s4.51.74,5.99,2.22c1.48,1.48,2.23,3.64,2.23,6.48v4.9c0,2.84-.74,5-2.23,6.48-1.49,1.48-3.48,2.22-5.99,2.22ZM90.58,126.26c1.81,0,3.22-.56,4.22-1.67,1-1.11,1.49-2.66,1.49-4.64v-5.08c0-1.98-.5-3.53-1.49-4.64-1-1.11-2.4-1.67-4.22-1.67s-3.19.56-4.19,1.67c-1,1.11-1.49,2.66-1.49,4.64v5.08c0,1.98.5,3.53,1.49,4.64,1,1.11,2.39,1.67,4.19,1.67Z"/><path class="cls-1" d="M109.96,128.56c-1.51,0-2.87-.28-4.07-.83-1.2-.55-2.14-1.38-2.83-2.5-.69-1.11-1.03-2.51-1.03-4.18v-.64h2.48v.64c0,1.78.51,3.1,1.52,3.96,1.02.87,2.32,1.3,3.92,1.3s2.88-.38,3.74-1.13c.86-.75,1.29-1.7,1.29-2.85,0-.8-.19-1.43-.58-1.9-.39-.47-.93-.85-1.63-1.15-.7-.3-1.51-.56-2.45-.78l-1.55-.4c-1.22-.33-2.29-.72-3.23-1.19-.94-.47-1.67-1.09-2.2-1.85-.53-.77-.79-1.75-.79-2.96s.29-2.25.88-3.12c.59-.88,1.42-1.55,2.48-2.02,1.07-.47,2.3-.7,3.69-.7s2.68.25,3.81.75c1.13.5,2.01,1.23,2.66,2.2.65.97.97,2.19.97,3.66v1.29h-2.48v-1.29c0-1.04-.22-1.88-.64-2.51-.43-.63-1.02-1.1-1.76-1.41-.75-.31-1.6-.46-2.56-.46-1.38,0-2.48.31-3.32.93-.84.62-1.26,1.51-1.26,2.65,0,.75.18,1.37.54,1.84.36.47.87.85,1.52,1.15.66.3,1.45.56,2.36.78l1.55.4c1.22.27,2.31.63,3.27,1.09.97.46,1.74,1.08,2.32,1.87.58.79.87,1.81.87,3.08s-.31,2.37-.93,3.31c-.62.94-1.49,1.67-2.62,2.19-1.13.52-2.45.78-3.96.78Z"/><path class="cls-1" d="M6.31,99.21L0,77.78h2.6l5.71,19.87h.39l5.71-19.87h2.6l-6.31,21.43h-4.39Z"/><path class="cls-1" d="M20.15,99.21v-21.43h12.65v2.33h-10.14v7.19h9.33v2.33h-9.33v9.58h-2.51Z"/><path class="cls-1" d="M34.86,99.21l6.76-10.81-6.67-10.62h2.96l5.32,8.85h.39l5.35-8.85h2.93l-6.64,10.62,6.76,10.81h-2.93l-5.47-9.03h-.39l-5.44,9.03h-2.93Z"/></svg>