<?xml version="1.0" encoding="UTF-8"?><svg id="Layer_1" xmlns="http://www.w3.org/2000/svg" viewBox="0 0 624.83 114.04"><defs><style>.cls-1{fill:#000;stroke-width:0px;}</style></defs><polygon class="cls-1" points="48.46 77.66 48.46 42.17 6.33 0 0 0 0 112.84 48.46 112.84 48.46 98.5 62.8 112.84 71.55 112.84 81.02 112.84 106.06 87.8 106.06 112.84 154.53 112.84 154.53 0 126.12 0 48.46 77.66"/><polygon class="cls-1" points="220.59 28.61 236.73 71.73 250.84 71.73 266.88 28.71 266.88 71.73 284.35 71.73 284.35 0 263.81 0 243.89 49.66 223.76 0 203.12 0 203.12 71.73 220.59 71.73 220.59 28.61"/><path class="cls-1" d="M338.41,0h-20.23l-25.96,71.73h18.29l4.29-12.67h26.77l4.29,12.67h18.49L338.41,0ZM319.4,45.57l8.79-26.26,8.89,26.26h-17.68Z"/><polygon class="cls-1" points="389.7 40.06 413.82 71.73 435.18 71.73 406.36 35.15 434.15 0 413.62 0 389.7 31.47 389.7 0 372.23 0 372.23 71.73 389.7 71.73 389.7 40.06"/><rect class="cls-1" x="443.45" width="17.47" height="71.73"/><polygon class="cls-1" points="520.3 44.45 491.07 0 473.6 0 473.6 71.73 491.07 71.73 491.07 27.49 520.3 71.73 537.77 71.73 537.77 0 520.3 0 520.3 44.45"/><path class="cls-1" d="M571.69,0l-25.96,71.73h18.29l4.29-12.67h26.77l4.29,12.67h18.49L591.93,0h-20.23ZM572.92,45.57l8.79-26.26,8.89,26.26h-17.68Z"/><path class="cls-1" d="M289.4,91.36c-.43,0-.79.14-1.09.43-.3.29-.45.65-.45,1.08s.15.8.45,1.08c.3.28.66.42,1.09.42s.81-.14,1.1-.42c.29-.28.44-.64.44-1.08s-.15-.79-.45-1.08c-.3-.29-.66-.43-1.09-.43Z"/><path class="cls-1" d="M450.62,91.36c-.43,0-.79.14-1.09.43-.3.29-.45.65-.45,1.08s.15.8.45,1.08c.3.28.66.42,1.09.42s.81-.14,1.1-.42c.29-.28.44-.64.44-1.08s-.15-.79-.45-1.08c-.3-.29-.66-.43-1.09-.43Z"/><path class="cls-1" d="M551.23,91.36c-.43,0-.79.14-1.09.43-.3.29-.45.65-.45,1.08s.15.8.45,1.08c.3.28.66.42,1.09.42s.81-.14,1.1-.42c.29-.28.44-.64.44-1.08s-.15-.79-.45-1.08c-.3-.29-.66-.43-1.09-.43Z"/><path class="cls-1" d="M564.83,91.36c-.43,0-.79.14-1.09.43-.3.29-.45.65-.45,1.08s.15.8.45,1.08c.3.28.66.42,1.09.42s.81-.14,1.1-.42c.29-.28.44-.64.44-1.08s-.15-.79-.45-1.08c-.3-.29-.66-.43-1.09-.43Z"/><path class="cls-1" d="M582.96,91.36c-.43,0-.79.14-1.09.43-.3.29-.45.65-.45,1.08s.15.8.45,1.08c.3.28.66.42,1.09.42s.81-.14,1.1-.42c.29-.28.44-.64.44-1.08s-.15-.79-.45-1.08c-.3-.29-.66-.43-1.09-.43Z"/><path class="cls-1" d="M209.66,95.54c.78-.85,1.7-1.53,2.74-2.01,1.04-.49,2.16-.73,3.37-.73,1.3,0,2.54.3,3.71.9,1.17.6,2.14,1.41,2.93,2.42l2.46-1.32c-1.04-1.44-2.34-2.6-3.92-3.47-1.58-.87-3.3-1.31-5.18-1.31-1.57,0-3.04.31-4.42.93-1.38.62-2.59,1.48-3.63,2.58-1.04,1.1-1.86,2.37-2.45,3.83-.59,1.46-.89,3.01-.89,4.67s.3,3.21.89,4.66c.59,1.45,1.41,2.73,2.45,3.83,1.04,1.1,2.25,1.97,3.63,2.59,1.38.62,2.85.94,4.42.94,1.88,0,3.6-.43,5.18-1.3,1.58-.87,2.88-2.02,3.92-3.47l-2.46-1.34c-.76.99-1.72,1.79-2.88,2.41-1.16.61-2.41.92-3.76.92-1.18,0-2.29-.24-3.33-.72-1.04-.48-1.96-1.14-2.75-1.99-.79-.85-1.41-1.83-1.85-2.95-.45-1.11-.67-2.31-.67-3.57s.22-2.44.66-3.55c.44-1.11,1.05-2.09,1.84-2.95Z"/><path class="cls-1" d="M233.12,97.29c-.89.46-1.63,1.07-2.22,1.85v-2.07h-2.78v16.54h2.78v-9.68c0-.84.2-1.6.61-2.28.41-.68.95-1.23,1.64-1.63.68-.4,1.44-.6,2.28-.6.43,0,.87.07,1.32.21l1.13-2.78c-.6-.17-1.21-.25-1.85-.25-1.05,0-2.02.23-2.91.69Z"/><path class="cls-1" d="M253.7,101.44c-.68-1.48-1.67-2.65-2.95-3.52-1.29-.87-2.75-1.31-4.41-1.31-1.52,0-2.91.39-4.16,1.17-1.25.78-2.25,1.84-2.99,3.16-.74,1.32-1.12,2.79-1.12,4.4s.37,3.06,1.12,4.38c.74,1.32,1.74,2.37,2.99,3.15,1.25.78,2.64,1.17,4.16,1.17,1.65,0,3.15-.47,4.48-1.4,1.33-.93,2.33-2.13,2.99-3.6l-2.83-.66c-.5.91-1.15,1.61-1.95,2.12-.81.51-1.7.76-2.7.76-1.39-.01-2.57-.48-3.55-1.42-.98-.93-1.56-2.1-1.76-3.5h13.5c.13-1.8-.14-3.44-.83-4.91ZM240.94,104.17c.12-.95.43-1.81.93-2.57.5-.77,1.14-1.38,1.9-1.83.77-.45,1.62-.68,2.56-.68s1.78.23,2.56.69c.78.46,1.43,1.08,1.93,1.85.5.77.8,1.61.9,2.54h-10.79Z"/><path class="cls-1" d="M270.62,99.9c-.61-.97-1.4-1.76-2.37-2.37-.98-.61-2.12-.92-3.43-.92-1.58,0-3.02.39-4.32,1.17-1.3.78-2.34,1.82-3.11,3.12-.77,1.3-1.16,2.75-1.16,4.34,0,1.22.23,2.37.68,3.43.45,1.06,1.08,2,1.89,2.8.81.81,1.74,1.44,2.8,1.89,1.06.46,2.2.69,3.42.69s2.34-.3,3.25-.89c.91-.59,1.62-1.37,2.14-2.34l.12,2.8h2.78v-16.54h-2.78l.1,2.83ZM269.65,108.36c-.44.91-1.05,1.64-1.85,2.18-.8.54-1.75.81-2.84.81s-2.05-.27-2.94-.79c-.89-.53-1.6-1.25-2.14-2.16-.54-.91-.81-1.93-.81-3.05s.26-2.13.79-3.04c.52-.91,1.23-1.64,2.13-2.18.89-.54,1.89-.81,2.98-.81s2.01.27,2.81.8c.8.53,1.43,1.26,1.87,2.17.44.91.66,1.93.66,3.05s-.22,2.11-.65,3.02Z"/><polygon class="cls-1" points="281.41 91.87 278.63 91.87 278.65 97.07 275.8 97.07 275.8 99.85 278.65 99.85 278.63 113.61 281.41 113.61 281.43 99.85 285.18 99.85 285.18 97.07 281.43 97.07 281.41 91.87"/><rect class="cls-1" x="287.99" y="97.07" width="2.78" height="16.54"/><polygon class="cls-1" points="301.26 110.37 296.41 97.04 293.45 97.04 299.49 113.61 303.05 113.61 309.07 97.04 306.11 97.04 301.26 110.37"/><path class="cls-1" d="M325.73,101.44c-.68-1.48-1.67-2.65-2.95-3.52-1.29-.87-2.75-1.31-4.41-1.31-1.52,0-2.91.39-4.16,1.17-1.25.78-2.25,1.84-2.99,3.16-.74,1.32-1.12,2.79-1.12,4.4s.37,3.06,1.12,4.38c.74,1.32,1.74,2.37,2.99,3.15,1.25.78,2.64,1.17,4.16,1.17,1.65,0,3.15-.47,4.48-1.4,1.33-.93,2.33-2.13,2.99-3.6l-2.83-.66c-.5.91-1.15,1.61-1.95,2.12-.81.51-1.7.76-2.7.76-1.39-.01-2.57-.48-3.55-1.42-.98-.93-1.56-2.1-1.76-3.5h13.5c.13-1.8-.14-3.44-.83-4.91ZM312.97,104.17c.12-.95.43-1.81.94-2.57.5-.77,1.14-1.38,1.9-1.83.77-.45,1.62-.68,2.56-.68s1.78.23,2.56.69c.78.46,1.43,1.08,1.93,1.85.5.77.8,1.61.9,2.54h-10.79Z"/><path class="cls-1" d="M348.53,91.37c-1-.61-2.12-.92-3.36-.92h-7.64v23.16h2.78v-9.51h4.86c1.2,0,2.31-.3,3.31-.9,1-.6,1.81-1.42,2.42-2.45.61-1.03.91-2.19.91-3.48s-.3-2.4-.89-3.43c-.59-1.03-1.39-1.85-2.39-2.46ZM348.47,99.26c-.37.63-.87,1.14-1.49,1.51-.62.37-1.31.55-2.06.55h-4.62v-8.42h4.62c.75,0,1.44.18,2.06.55.62.37,1.12.87,1.49,1.51.37.63.55,1.35.55,2.16s-.18,1.51-.55,2.14Z"/><path class="cls-1" d="M359.66,97.29c-.89.46-1.63,1.07-2.22,1.85v-2.07h-2.78v16.54h2.78v-9.68c0-.84.2-1.6.61-2.28.41-.68.95-1.23,1.64-1.63.68-.4,1.45-.6,2.28-.6.43,0,.87.07,1.32.21l1.13-2.78c-.6-.17-1.21-.25-1.85-.25-1.05,0-2.02.23-2.91.69Z"/><path class="cls-1" d="M377.04,97.78c-1.25-.78-2.64-1.17-4.16-1.17s-2.91.39-4.16,1.17c-1.25.78-2.25,1.84-2.99,3.16-.74,1.32-1.12,2.79-1.12,4.4s.37,3.06,1.12,4.38c.74,1.32,1.74,2.37,2.99,3.15,1.25.78,2.64,1.17,4.16,1.17s2.91-.39,4.16-1.17c1.25-.78,2.25-1.83,2.99-3.15.74-1.32,1.12-2.78,1.12-4.38s-.37-3.08-1.12-4.4c-.74-1.32-1.74-2.38-2.99-3.16ZM377.65,108.28c-.49.9-1.14,1.62-1.97,2.17-.83.55-1.76.82-2.8.82s-1.9-.26-2.74-.79c-.83-.52-1.5-1.23-2-2.13-.5-.9-.75-1.9-.75-3s.24-2.06.73-2.96c.49-.9,1.14-1.63,1.97-2.18.83-.55,1.76-.82,2.8-.82s1.94.27,2.77.82c.83.55,1.49,1.27,1.98,2.17.49.9.74,1.89.74,2.97s-.24,2.04-.73,2.94Z"/><path class="cls-1" d="M397.12,99.86c-.56-.97-1.32-1.75-2.27-2.35-.95-.6-2.06-.89-3.34-.89-1.2,0-2.33.23-3.37.68-1.05.45-1.97,1.08-2.77,1.88-.8.8-1.43,1.73-1.88,2.78-.45,1.05-.68,2.18-.68,3.38s.23,2.33.68,3.37c.45,1.05,1.08,1.97,1.88,2.77.8.8,1.72,1.43,2.77,1.88,1.05.45,2.17.68,3.37.68,1.28,0,2.39-.3,3.34-.89.95-.6,1.7-1.38,2.27-2.35v2.81h2.78v-24.82h-2.78v11.07ZM396.23,108.36c-.44.91-1.05,1.64-1.85,2.18-.8.54-1.75.81-2.84.81s-2.05-.27-2.94-.79c-.89-.53-1.6-1.25-2.14-2.16-.54-.91-.81-1.93-.81-3.05s.26-2.13.79-3.04c.53-.91,1.24-1.64,2.13-2.18.89-.54,1.88-.81,2.97-.81s2.01.27,2.81.8c.8.53,1.43,1.26,1.87,2.17.44.91.66,1.93.66,3.05s-.22,2.11-.65,3.02Z"/><path class="cls-1" d="M415.03,97.07v9.65c0,.84-.2,1.6-.61,2.28-.41.68-.96,1.23-1.64,1.63-.68.4-1.44.6-2.27.6s-1.6-.2-2.28-.6c-.68-.4-1.23-.95-1.64-1.63-.41-.68-.61-1.45-.61-2.28v-9.65h-2.78v10.26c0,1.25.3,2.38.9,3.39.6,1.01,1.41,1.82,2.42,2.42,1.01.6,2.14.9,3.39.9,1.04,0,2-.23,2.9-.69.89-.46,1.63-1.07,2.22-1.84l.02,2.1h2.78l-.02-16.54h-2.78Z"/><path class="cls-1" d="M425.46,100.2c.83-.55,1.76-.82,2.8-.82.76,0,1.51.18,2.23.53.73.35,1.36.86,1.89,1.51l2.48-1.34c-.75-1.06-1.7-1.9-2.85-2.53-1.15-.63-2.4-.94-3.75-.94-1.52,0-2.91.39-4.16,1.17-1.25.78-2.25,1.84-2.99,3.16-.74,1.32-1.12,2.79-1.12,4.4s.37,3.06,1.12,4.38c.74,1.32,1.74,2.37,2.99,3.15,1.25.78,2.64,1.17,4.16,1.17,1.35,0,2.59-.31,3.75-.94,1.15-.63,2.1-1.47,2.85-2.52l-2.48-1.34c-.5.6-1.1,1.08-1.82,1.46-.72.38-1.48.56-2.3.56-1.01,0-1.94-.27-2.77-.81-.83-.54-1.49-1.26-1.98-2.16-.49-.9-.74-1.88-.74-2.95s.24-2.06.73-2.96c.49-.9,1.14-1.63,1.97-2.18Z"/><polygon class="cls-1" points="442.63 91.87 439.85 91.87 439.87 97.07 437.02 97.07 437.02 99.85 439.87 99.85 439.85 113.61 442.63 113.61 442.65 99.85 446.4 99.85 446.4 97.07 442.65 97.07 442.63 91.87"/><rect class="cls-1" x="449.21" y="97.07" width="2.78" height="16.54"/><path class="cls-1" d="M467.19,97.78c-1.25-.78-2.64-1.17-4.16-1.17s-2.91.39-4.16,1.17c-1.25.78-2.25,1.84-2.99,3.16-.74,1.32-1.12,2.79-1.12,4.4s.37,3.06,1.12,4.38c.74,1.32,1.74,2.37,2.99,3.15,1.25.78,2.64,1.17,4.16,1.17s2.91-.39,4.16-1.17c1.25-.78,2.25-1.83,2.99-3.15.74-1.32,1.12-2.78,1.12-4.38s-.37-3.08-1.12-4.4c-.74-1.32-1.74-2.38-2.99-3.16ZM467.79,108.28c-.49.9-1.14,1.62-1.97,2.17-.83.55-1.76.82-2.8.82s-1.9-.26-2.74-.79c-.83-.52-1.5-1.23-2-2.13-.5-.9-.75-1.9-.75-3s.24-2.06.73-2.96c.49-.9,1.14-1.63,1.97-2.18.83-.55,1.76-.82,2.8-.82s1.94.27,2.77.82c.83.55,1.49,1.27,1.98,2.17.49.9.74,1.89.74,2.97s-.24,2.04-.73,2.94Z"/><path class="cls-1" d="M485.35,97.51c-1.01-.6-2.14-.9-3.37-.9-1.05,0-2.02.23-2.91.69-.89.46-1.63,1.07-2.22,1.85v-2.07h-2.78v16.54h2.78v-9.68c0-.84.2-1.6.61-2.28.41-.68.95-1.23,1.64-1.63.68-.4,1.45-.6,2.28-.6s1.59.2,2.28.6c.69.4,1.24.95,1.65,1.63.41.68.61,1.44.61,2.28v9.68h2.78v-10.31c0-1.24-.3-2.36-.91-3.37-.61-1.02-1.42-1.82-2.43-2.42Z"/><polygon class="cls-1" points="502.7 93.23 513.5 93.23 513.5 90.45 499.92 90.45 499.92 113.61 502.7 113.61 502.7 102.6 511.92 102.6 511.92 99.82 502.7 99.82 502.7 93.23"/><path class="cls-1" d="M527.68,99.9c-.61-.97-1.4-1.76-2.37-2.37-.98-.61-2.12-.92-3.43-.92-1.58,0-3.02.39-4.32,1.17-1.3.78-2.34,1.82-3.11,3.12-.77,1.3-1.16,2.75-1.16,4.34,0,1.22.23,2.37.68,3.43.45,1.06,1.08,2,1.89,2.8.81.81,1.74,1.44,2.8,1.89,1.06.46,2.2.69,3.42.69s2.34-.3,3.25-.89c.91-.59,1.62-1.37,2.14-2.34l.12,2.8h2.78v-16.54h-2.78l.1,2.83ZM526.71,108.36c-.44.91-1.05,1.64-1.85,2.18-.8.54-1.75.81-2.84.81s-2.05-.27-2.94-.79c-.89-.53-1.6-1.25-2.14-2.16-.54-.91-.81-1.93-.81-3.05s.26-2.13.79-3.04c.52-.91,1.23-1.64,2.13-2.18.89-.54,1.89-.81,2.98-.81s2.01.27,2.81.8c.8.53,1.43,1.26,1.87,2.17.44.91.66,1.93.66,3.05s-.22,2.11-.65,3.02Z"/><path class="cls-1" d="M537.82,100.2c.83-.55,1.76-.82,2.8-.82.76,0,1.51.18,2.23.53.73.35,1.36.86,1.89,1.51l2.48-1.34c-.75-1.06-1.7-1.9-2.85-2.53-1.15-.63-2.4-.94-3.75-.94-1.52,0-2.91.39-4.16,1.17-1.25.78-2.25,1.84-2.99,3.16-.74,1.32-1.12,2.79-1.12,4.4s.37,3.06,1.12,4.38c.74,1.32,1.74,2.37,2.99,3.15,1.25.78,2.64,1.17,4.16,1.17,1.35,0,2.59-.31,3.75-.94,1.15-.63,2.1-1.47,2.85-2.52l-2.48-1.34c-.5.6-1.1,1.08-1.82,1.46-.72.38-1.48.56-2.3.56-1.01,0-1.94-.27-2.77-.81-.83-.54-1.49-1.26-1.99-2.16-.49-.9-.74-1.88-.74-2.95s.24-2.06.73-2.96c.49-.9,1.14-1.63,1.97-2.18Z"/><rect class="cls-1" x="549.82" y="97.07" width="2.78" height="16.54"/><rect class="cls-1" x="556.67" y="88.8" width="2.78" height="24.82"/><rect class="cls-1" x="563.42" y="97.07" width="2.78" height="16.54"/><polygon class="cls-1" points="574.97 91.87 572.19 91.87 572.2 97.07 569.36 97.07 569.36 99.85 572.2 99.85 572.19 113.61 574.97 113.61 574.98 99.85 578.74 99.85 578.74 97.07 574.98 97.07 574.97 91.87"/><rect class="cls-1" x="581.55" y="97.07" width="2.78" height="16.54"/><path class="cls-1" d="M602.73,101.44c-.68-1.48-1.67-2.65-2.95-3.52-1.29-.87-2.75-1.31-4.41-1.31-1.52,0-2.91.39-4.16,1.17-1.25.78-2.25,1.84-2.99,3.16-.74,1.32-1.12,2.79-1.12,4.4s.37,3.06,1.12,4.38c.74,1.32,1.74,2.37,2.99,3.15,1.25.78,2.64,1.17,4.16,1.17,1.65,0,3.15-.47,4.48-1.4,1.33-.93,2.33-2.13,2.99-3.6l-2.83-.66c-.5.91-1.15,1.61-1.95,2.12-.81.51-1.7.76-2.7.76-1.39-.01-2.57-.48-3.55-1.42-.98-.93-1.56-2.1-1.76-3.5h13.5c.13-1.8-.14-3.44-.83-4.91ZM589.97,104.17c.12-.95.43-1.81.94-2.57.5-.77,1.14-1.38,1.9-1.83.77-.45,1.62-.68,2.56-.68s1.78.23,2.56.69c.78.46,1.43,1.08,1.93,1.85.5.77.8,1.61.9,2.54h-10.79Z"/><path class="cls-1" d="M614.95,105.11c-.87-.42-1.81-.79-2.81-1.11-.68-.22-1.32-.42-1.9-.59-.58-.17-1.05-.4-1.41-.69-.35-.29-.53-.71-.53-1.26,0-.85.36-1.49,1.08-1.91.72-.42,1.58-.63,2.57-.61.76.02,1.5.22,2.21.6.71.38,1.2.86,1.48,1.46l2.23-1.31c-.54-.98-1.36-1.76-2.46-2.33-1.1-.57-2.32-.86-3.66-.86-1.07,0-2.07.2-2.99.61-.92.41-1.67.99-2.23,1.74-.57.75-.85,1.64-.85,2.66,0,.97.26,1.77.77,2.39.51.62,1.22,1.14,2.11,1.54.89.4,1.91.75,3.04,1.03.57.16,1.14.34,1.7.52.56.18,1.02.43,1.39.74.37.31.55.75.55,1.3,0,.78-.36,1.39-1.08,1.81-.72.42-1.53.64-2.43.64s-1.7-.22-2.51-.65c-.81-.43-1.34-.93-1.58-1.5l-2.38,1.03c.29.68.75,1.29,1.38,1.81.63.52,1.37.94,2.22,1.24.84.3,1.71.47,2.61.51,1.09.04,2.12-.13,3.09-.53.97-.4,1.76-.97,2.37-1.73.61-.76.91-1.64.91-2.66,0-.93-.25-1.7-.79-2.33-.53-.63-1.24-1.15-2.11-1.57Z"/><path class="cls-1" d="M619.99,6.91c.25-.34.37-.73.37-1.16,0-.38-.09-.73-.27-1.05-.18-.31-.45-.56-.81-.74-.36-.18-.8-.27-1.32-.27h-2.67v6.53h1.59v-2.47h.38l1.36,2.47h1.8l-1.51-2.59c.48-.14.84-.38,1.08-.73ZM618.52,6.41c-.15.14-.36.21-.66.21h-.99v-1.62h.99c.29,0,.51.07.66.21.15.14.22.34.22.59,0,.26-.07.46-.22.6Z"/><path class="cls-1" d="M617.88,0c-3.84,0-6.95,3.11-6.95,6.95s3.11,6.95,6.95,6.95,6.95-3.11,6.95-6.95-3.11-6.95-6.95-6.95ZM617.88,12.46c-3.04,0-5.51-2.47-5.51-5.51s2.47-5.51,5.51-5.51,5.51,2.47,5.51,5.51-2.47,5.51-5.51,5.51Z"/></svg>