<svg xmlns="http://www.w3.org/2000/svg" width="97.918" height="60.134" viewBox="0 0 97.918 60.134">
  <g id="Group_38" data-name="Group 38" transform="translate(-984.228 -4125.585)">
    <g id="Group_22" data-name="Group 22" transform="translate(0 -103.893)">
      <rect id="Rectangle_16" data-name="Rectangle 16" width="20.049" height="20.049" transform="translate(1044.376 4269.562)" fill="#fff"/>
      <rect id="Rectangle_17" data-name="Rectangle 17" width="20.049" height="10.025" transform="translate(984.228 4279.587)" fill="#fff"/>
      <path id="Path_7" data-name="Path 7" d="M1044.405,4229.479l-20.079,20.079-20.049-20.049H984.228v20.049l20.108,20.108h20.049v-.029h19.961l20.108-20.108v-20.049Z" fill="#fff"/>
    </g>
    <g id="Group_23" data-name="Group 23" transform="translate(0 -103.893)">
      <path id="Path_8" data-name="Path 8" d="M1077.906,4229.478a4.251,4.251,0,1,0,4.24,4.23A4.149,4.149,0,0,0,1077.906,4229.478Zm-.022,7.718a3.466,3.466,0,1,1,3.444-3.488A3.407,3.407,0,0,1,1077.884,4237.2Z" fill="#fff"/>
      <path id="Path_9" data-name="Path 9" d="M1080.118,4233.054c0-1.014-.763-1.657-2.038-1.657h-2.028v4.666h1.243v-1.341h.839l.872,1.341h1.254l-1.025-1.559A1.5,1.5,0,0,0,1080.118,4233.054Zm-2.115.72h-.719v-1.45H1078c.567,0,.884.261.884.73S1078.57,4233.774,1078,4233.774Z" fill="#fff"/>
    </g>
  </g>
</svg>
