<?xml version="1.0" encoding="UTF-8"?><svg id="Layer_1" xmlns="http://www.w3.org/2000/svg" viewBox="0 0 296.63 193.8"><defs><style>.cls-1{fill:#000;stroke-width:0px;}</style></defs><polygon class="cls-1" points="44.94 179.62 40.31 193.6 37.55 193.6 34.09 183.26 30.58 193.6 27.8 193.6 23.17 179.62 25.86 179.62 29.34 190.25 32.96 179.62 35.35 179.62 38.89 190.31 42.47 179.62 44.94 179.62"/><path class="cls-1" d="M55.63,188.33l-2.64-6.11-2.62,6.11h5.25ZM56.49,190.37h-6.99l-1.38,3.24h-2.68l6.29-13.98h2.56l6.31,13.98h-2.72l-1.4-3.24Z"/><polygon class="cls-1" points="75.6 179.62 75.6 193.6 73.01 193.6 73.01 187.61 65.78 187.61 65.78 193.6 63.18 193.6 63.18 179.62 65.78 179.62 65.78 185.39 73.01 185.39 73.01 179.62 75.6 179.62"/><path class="cls-1" d="M88.37,188.33l-2.64-6.11-2.62,6.11h5.25ZM89.23,190.37h-6.99l-1.38,3.24h-2.68l6.29-13.98h2.56l6.31,13.98h-2.72l-1.4-3.24Z"/><path class="cls-1" d="M94.08,191.79l1.48-1.78c.76,1.04,1.68,1.6,2.78,1.6,1.44,0,2.18-.86,2.18-2.58v-7.23h-4.98v-2.18h7.57v9.27c0,3.3-1.64,4.91-4.72,4.91-1.76,0-3.36-.72-4.32-2.02"/><path class="cls-1" d="M122.95,184.59c0-1.76-1.18-2.78-3.46-2.78h-3.04v5.56h3.04c2.28,0,3.46-1.02,3.46-2.78M125.57,184.59c0,3.08-2.28,4.97-5.95,4.97h-3.16v4.04h-2.6v-13.98h5.75c3.68,0,5.95,1.88,5.95,4.97"/><path class="cls-1" d="M134.59,181.82h-3.04v5.57h3.04c2.28,0,3.46-1.04,3.46-2.8s-1.18-2.78-3.46-2.78M138.11,193.6l-2.86-4.1c-.18.02-.36.02-.54.02h-3.16v4.08h-2.6v-13.98h5.75c3.68,0,5.95,1.88,5.95,4.97,0,2.12-1.08,3.68-2.98,4.41l3.22,4.6h-2.8Z"/><path class="cls-1" d="M155.81,186.61c0-2.86-2.1-4.91-4.92-4.91s-4.91,2.06-4.91,4.91,2.1,4.91,4.91,4.91,4.92-2.06,4.92-4.91M143.36,186.61c0-4.14,3.2-7.19,7.53-7.19s7.53,3.04,7.53,7.19-3.2,7.19-7.53,7.19-7.53-3.06-7.53-7.19"/><path class="cls-1" d="M167.97,191.41c3.12,0,5.13-1.9,5.13-4.8s-2.02-4.8-5.13-4.8h-3.4v9.59h3.4ZM161.98,179.62h6.11c4.54,0,7.63,2.8,7.63,6.99s-3.1,6.99-7.63,6.99h-6.11v-13.98Z"/><path class="cls-1" d="M179.16,187.51v-7.89h2.6v7.79c0,2.88,1.3,4.12,3.56,4.12s3.54-1.24,3.54-4.12v-7.79h2.56v7.89c0,4.08-2.3,6.29-6.11,6.29s-6.13-2.22-6.13-6.29"/><path class="cls-1" d="M194.84,186.61c0-4.18,3.2-7.19,7.49-7.19,2.28,0,4.23.82,5.53,2.34l-1.68,1.58c-1.02-1.1-2.28-1.64-3.74-1.64-2.9,0-4.99,2.04-4.99,4.91s2.1,4.91,4.99,4.91c1.46,0,2.72-.54,3.74-1.66l1.68,1.6c-1.3,1.52-3.26,2.34-5.55,2.34-4.28,0-7.47-3.02-7.47-7.19"/><polygon class="cls-1" points="213.84 181.82 209.2 181.82 209.2 179.62 221.07 179.62 221.07 181.82 216.44 181.82 216.44 193.6 213.84 193.6 213.84 181.82"/><rect class="cls-1" x="223.83" y="179.62" width="2.6" height="13.98"/><path class="cls-1" d="M242.45,186.61c0-2.86-2.1-4.91-4.91-4.91s-4.91,2.06-4.91,4.91,2.1,4.91,4.91,4.91,4.91-2.06,4.91-4.91M230,186.61c0-4.14,3.2-7.19,7.53-7.19s7.53,3.04,7.53,7.19-3.2,7.19-7.53,7.19-7.53-3.06-7.53-7.19"/><polygon class="cls-1" points="261.04 179.62 261.04 193.6 258.91 193.6 251.19 184.13 251.19 193.6 248.62 193.6 248.62 179.62 250.75 179.62 258.47 189.09 258.47 179.62 261.04 179.62"/><path class="cls-1" d="M264.42,192.13l.9-2.02c1.12.9,2.9,1.54,4.61,1.54,2.18,0,3.1-.78,3.1-1.82,0-3.02-8.31-1.04-8.31-6.24,0-2.26,1.8-4.17,5.63-4.17,1.68,0,3.44.44,4.65,1.24l-.82,2.02c-1.26-.74-2.64-1.1-3.86-1.1-2.16,0-3.04.84-3.04,1.9,0,2.98,8.29,1.04,8.29,6.17,0,2.24-1.82,4.15-5.65,4.15-2.18,0-4.36-.68-5.51-1.68"/><path class="cls-1" d="M258.29,90.31l-13.87-1.63c0-2.8-.01-5.51-.05-7.26-.32-16.04,10.86-25.09,21.9-28.41h5.91v26.43l-13.9,10.88ZM296.63,28.59h-33.57s-43.11,8.02-43.1,53.32c0,0-.01,25.78,0,26.43l44.21,7.25,8.01-7v42.09h24.44V28.59Z"/><path class="cls-1" d="M183.8,97.37c-6.18-1.79-13.9-4.45-21.77-7.95.01-.02.02-.03.03-.05,5.87-8.52,8.71-18.18,9.9-27.2,7.96,10.18,13.12,22.03,11.84,35.2M140.6,77.31c-5.5-4.03-10.27-8.59-13.63-13.66,1.1-2.92,6.16-16.82,21.11-18.75,1.44,18.17-3.85,28.13-7.48,32.41M126.13,0l-9.25,22.6c.17.07,3.91,1.64,9.55,4.54-21.88,13.11-25.43,39.68-25.43,39.68,2.61,5.58,6.28,12.95,14.58,21.21h-24.08l-13.42-32.87s-10.32-26.56-40.11-26.56H0v24.42h37.97c15.08,0,19.3,15.77,19.3,15.77h-7.99C22.31,68.78.26,90.73.14,117.71l-.14,32.97h24.42l.14-32.86c.06-13.58,11.15-24.62,24.73-24.62h17.87l7.78,19.25h45.36s13.08-1.35,21.32-5.8c25.23,13.44,52.39,18.23,52.39,18.23l12.74-16.51c7.26-28.09-4.06-73.86-80.63-108.36"/><path class="cls-1" d="M65.66,126.22c0-7.61-6.17-13.78-13.78-13.78s-13.78,6.17-13.78,13.78,6.17,13.78,13.78,13.78,13.78-6.17,13.78-13.78"/><rect class="cls-1" x="0" y="5.97" width="45.78" height="8.52"/><rect class="cls-1" x="250.85" y="5.97" width="45.78" height="8.52"/></svg>